<?xml version="1.0" encoding="UTF-8"?>
<svg version="1.1" xmlns="http://www.w3.org/2000/svg" width="1024" height="1024">
<path d="M0 0 C1.37918861 -0.00074776 1.37918861 -0.00074776 2.78623962 -0.00151062 C4.72706263 0.00082694 6.66788884 0.01053671 8.60864258 0.02709961 C11.58246893 0.05072267 14.55540034 0.04765434 17.52929688 0.04101562 C19.41536994 0.04659155 21.30143922 0.05370089 23.1875 0.0625 C24.07816666 0.06158859 24.96883331 0.06067719 25.88648987 0.05973816 C26.71422409 0.06927017 27.54195831 0.07880219 28.39477539 0.08862305 C29.12217422 0.09323044 29.84957306 0.09783783 30.59901428 0.10258484 C32.52734375 0.36328125 32.52734375 0.36328125 35.52734375 2.36328125 C35.13100363 10.91996789 33.93736222 18.65126272 31.51953125 26.85546875 C28.48455548 37.64215042 25.74298659 48.46875804 23.16015625 59.37109375 C22.88378452 60.53686573 22.88378452 60.53686573 22.60182953 61.72618866 C21.66116427 65.69891087 20.72458794 69.67257796 19.79101562 73.64697266 C18.83190764 77.72950986 17.86515775 81.8101956 16.89636421 85.8904438 C16.14008487 89.07942729 15.38781714 92.26934677 14.63674545 95.45956039 C14.28157311 96.966015 13.92517056 98.47218017 13.56744766 99.97803116 C11.88154031 107.0837399 10.28883838 114.09084129 9.52734375 121.36328125 C8.87376294 123.36759574 8.2059743 125.36730905 7.52734375 127.36328125 C6.79217755 130.68403199 6.1485206 134.01949947 5.52734375 137.36328125 C7.58724853 136.06860448 7.58724853 136.06860448 9.52734375 134.36328125 C9.52734375 133.37328125 9.52734375 132.38328125 9.52734375 131.36328125 C10.18734375 131.36328125 10.84734375 131.36328125 11.52734375 131.36328125 C18.71376653 118.88485087 24.21485623 105.77063867 29.66607666 92.46337891 C30.57731991 90.24142032 31.49229081 88.02102046 32.40771484 85.80078125 C39.24527289 69.20125949 45.98995314 52.57269197 52.29296875 35.76171875 C52.68140961 34.72616348 53.06985046 33.69060822 53.47006226 32.62367249 C55.35579116 27.58612486 57.22768874 22.54387725 59.08251953 17.49487305 C59.75937624 15.6710375 60.4362936 13.84722445 61.11328125 12.0234375 C61.56686005 10.77021194 61.56686005 10.77021194 62.02960205 9.4916687 C62.31551208 8.72492828 62.60142212 7.95818787 62.89599609 7.16821289 C63.14006195 6.50213516 63.38412781 5.83605743 63.6355896 5.14979553 C64.68672473 3.04398203 65.71405674 1.86778235 67.52734375 0.36328125 C69.44425774 -0.01424217 69.44425774 -0.01424217 71.65084839 -0.01766968 C72.48916199 -0.02612915 73.32747559 -0.03458862 74.19119263 -0.04330444 C75.10762543 -0.03723175 76.02405823 -0.03115906 76.96826172 -0.02490234 C77.93602539 -0.0301593 78.90378906 -0.03541626 79.90087891 -0.04083252 C83.10725947 -0.0540604 86.31314542 -0.04528304 89.51953125 -0.03515625 C91.74529109 -0.03717651 93.97105029 -0.04008754 96.19680786 -0.04385376 C100.86580699 -0.04828117 105.53463412 -0.04183376 110.20361328 -0.02783203 C116.18820873 -0.0107599 122.17239998 -0.02056641 128.15698051 -0.03854942 C132.75520875 -0.04939284 137.35334129 -0.04593797 141.95157242 -0.03816605 C144.15798109 -0.03616456 146.36439844 -0.03862149 148.57079697 -0.04560471 C151.65664402 -0.05322596 154.74183826 -0.04160413 157.82763672 -0.02490234 C158.74002106 -0.03097504 159.6524054 -0.03704773 160.59243774 -0.04330444 C165.31038324 0.00398648 168.81903786 0.09196806 172.52734375 3.36328125 C174.39992104 7.59189124 172.65211229 11.65960171 171.4609375 15.90234375 C171.23176132 16.74318512 171.00258514 17.58402649 170.76646423 18.4503479 C168.24072989 27.60755223 165.4334241 36.6758753 162.58984375 45.73828125 C162.03042121 47.53290891 161.47143107 49.3276714 160.9128418 51.12255859 C159.43262208 55.87558069 157.9476499 60.62710266 156.46118164 65.37817383 C153.89345238 73.58618055 151.33075313 81.79575412 148.77072144 90.00616455 C147.85649207 92.93494745 146.93926588 95.86277937 146.02172852 98.79052734 C145.45709071 100.59860056 144.89255119 102.40670447 144.328125 104.21484375 C144.07347473 105.02455627 143.81882446 105.8342688 143.55645752 106.66851807 C138.45869039 122.76963334 138.45869039 122.76963334 141.08984375 138.98828125 C145.82709029 143.60405993 150.13042982 145.84393646 156.68139648 145.91845703 C157.39368408 145.90024902 158.10597168 145.88204102 158.83984375 145.86328125 C159.58242432 145.85409668 160.32500488 145.84491211 161.09008789 145.83544922 C167.9123361 145.61108692 174.54988523 144.34073977 179.52734375 139.36328125 C179.45431194 136.88932868 179.27480858 134.50820975 179.02734375 132.05078125 C177.76935784 115.90401886 180.05110141 99.87948669 184.52734375 84.36328125 C184.73875 83.63012695 184.95015625 82.89697266 185.16796875 82.14160156 C188.48946271 70.91707617 192.95343639 60.63999789 198.52734375 50.36328125 C199.35878906 48.77580078 199.35878906 48.77580078 200.20703125 47.15625 C206.95099891 34.84608894 217.0539037 22.55859557 228.52734375 14.36328125 C229.18734375 14.36328125 229.84734375 14.36328125 230.52734375 14.36328125 C230.52734375 13.70328125 230.52734375 13.04328125 230.52734375 12.36328125 C250.34784297 1.37264104 272.50041651 -3.81931173 295.29199219 0.94067383 C297.55440555 1.60207672 297.55440555 1.60207672 299.52734375 0.36328125 C299.52734375 1.02328125 299.52734375 1.68328125 299.52734375 2.36328125 C300.06576904 2.22253174 300.60419434 2.08178223 301.15893555 1.93676758 C308.50496318 0.22703974 315.74325479 0.02369797 323.25170898 0.04760742 C325.3538644 0.05080256 327.45465465 0.02710175 329.55664062 0.00195312 C330.90755033 -0.00031728 332.25846377 -0.00102457 333.609375 0 C335.42272339 -0.00447144 335.42272339 -0.00447144 337.27270508 -0.0090332 C340.85429279 0.40068259 342.73510669 1.09908902 345.52734375 3.36328125 C347.31044475 6.89311297 346.04924904 9.90840682 344.97265625 13.55078125 C344.60970459 14.7924707 344.24675293 16.03416016 343.87280273 17.31347656 C343.46640254 18.6635378 343.05957164 20.01346945 342.65234375 21.36328125 C342.23786948 22.76254933 341.8238951 24.16196558 341.41040039 25.56152344 C338.37163777 35.79001377 335.13425909 45.95194397 331.83007812 56.09765625 C328.97044426 64.89957955 326.29864947 73.74558344 323.69604492 82.62646484 C320.7926224 92.51859953 317.79544646 102.38061146 314.77734375 112.23828125 C314.42836029 113.37861816 314.42836029 113.37861816 314.07232666 114.54199219 C313.61717615 116.02892203 313.16172728 117.51576058 312.70596313 119.00250244 C312.2682295 120.43222411 311.83182148 121.86235239 311.39682007 123.29290771 C310.39157761 126.59087047 309.3589781 129.87192411 308.27539062 133.14550781 C307.89962891 134.29245117 307.52386719 135.43939453 307.13671875 136.62109375 C306.80124023 137.61512207 306.46576172 138.60915039 306.12011719 139.63330078 C305.47804098 142.59034204 305.71691343 144.47406422 306.52734375 147.36328125 C309.82734375 147.36328125 313.12734375 147.36328125 316.52734375 147.36328125 C316.52734375 148.02328125 316.52734375 148.68328125 316.52734375 149.36328125 C317.51734375 149.69328125 318.50734375 150.02328125 319.52734375 150.36328125 C321.38210982 157.80884217 319.24362705 165.75655538 315.52734375 172.36328125 C305.09825007 177.69572219 284.72785092 177.10995115 273.46484375 174.07421875 C269.97973488 172.79540864 266.78516433 171.14027429 263.52734375 169.36328125 C263.52734375 168.70328125 263.52734375 168.04328125 263.52734375 167.36328125 C262.86734375 167.36328125 262.20734375 167.36328125 261.52734375 167.36328125 C260.86734375 165.71328125 260.20734375 164.06328125 259.52734375 162.36328125 C256.70812895 163.69869879 254.03145332 165.02814695 251.4296875 166.7578125 C240.04532982 174.26502666 227.01595061 176.83367443 213.52734375 175.36328125 C204.41524896 173.32308896 197.57318461 168.7444866 191.33984375 161.92578125 C190.41171875 161.08015625 189.48359375 160.23453125 188.52734375 159.36328125 C184.40895482 159.60153516 181.84657416 161.28577212 178.52734375 163.61328125 C168.35137336 170.26103701 157.40447821 173.26049188 145.52734375 175.36328125 C144.75003906 175.51925781 143.97273437 175.67523437 143.171875 175.8359375 C131.45254657 177.74884852 116.92993486 175.02548237 106.90234375 168.61328125 C105.43694709 167.53952157 103.97849309 166.45621895 102.52734375 165.36328125 C101.80160156 164.90695312 101.07585937 164.450625 100.328125 163.98046875 C94.03926991 159.53990934 92.63139935 153.58794797 91.12109375 146.3984375 C88.88427802 132.7727184 93.45094047 118.98850002 96.83984375 105.86328125 C97.16887695 104.58807617 97.49791016 103.31287109 97.83691406 101.99902344 C101.20519668 89.12411191 104.98195487 76.36754601 108.77734375 63.61328125 C109.08121002 62.58968506 109.38507629 61.56608887 109.69815063 60.51147461 C115.68360827 40.39235716 115.68360827 40.39235716 118.86523438 32.34741211 C119.76753791 29.64349587 119.83203752 27.18169859 119.52734375 24.36328125 C117.21734375 23.70328125 114.90734375 23.04328125 112.52734375 22.36328125 C112.19734375 23.02328125 111.86734375 23.68328125 111.52734375 24.36328125 C111.52734375 23.70328125 111.52734375 23.04328125 111.52734375 22.36328125 C101.74861504 27.48547248 97.8712579 39.40897983 93.33984375 48.92578125 C92.77958496 50.09455811 92.21932617 51.26333496 91.64208984 52.4675293 C87.32393206 61.5164617 83.26118935 70.6704273 79.26635742 79.86621094 C76.53685119 86.13222523 73.66311601 92.24524711 70.53125 98.3203125 C68.15692374 103.01693543 66.00488574 107.81763064 63.81396484 112.6015625 C53.79579641 134.47438577 53.79579641 134.47438577 47.52734375 144.36328125 C47.05941406 145.10191406 46.59148437 145.84054687 46.109375 146.6015625 C43.66145489 150.23954839 40.99335114 152.72251372 37.52734375 155.36328125 C36.50061297 156.46196621 35.48041242 157.56677043 34.46484375 158.67578125 C21.83738744 171.44019479 4.73626996 174.77971043 -12.47265625 175.36328125 C-28.00424634 175.3341249 -28.00424634 175.3341249 -34.47265625 173.36328125 C-34.96765625 174.35328125 -34.96765625 174.35328125 -35.47265625 175.36328125 C-35.47265625 174.37328125 -35.47265625 173.38328125 -35.47265625 172.36328125 C-36.13265625 172.36328125 -36.79265625 172.36328125 -37.47265625 172.36328125 C-37.96765625 173.35328125 -37.96765625 173.35328125 -38.47265625 174.36328125 C-38.47265625 173.37328125 -38.47265625 172.38328125 -38.47265625 171.36328125 C-39.05015625 171.15703125 -39.62765625 170.95078125 -40.22265625 170.73828125 C-43.48736834 168.74317941 -44.73680247 166.77299403 -46.47265625 163.36328125 C-47.27488027 156.87565987 -45.91854227 150.5972241 -44.47265625 144.30078125 C-44.281875 143.43517578 -44.09109375 142.56957031 -43.89453125 141.67773438 C-43.42896446 139.57104464 -42.95201064 137.46687661 -42.47265625 135.36328125 C-43.13265625 135.03328125 -43.79265625 134.70328125 -44.47265625 134.36328125 C-43.81265625 134.03328125 -43.15265625 133.70328125 -42.47265625 133.36328125 C-41.50943532 130.5360337 -41.50943532 130.5360337 -40.6953125 127 C-40.52813721 126.32107193 -40.36096191 125.64214386 -40.1887207 124.94264221 C-39.62784233 122.64758777 -39.08091285 120.34947555 -38.53515625 118.05078125 C-38.34412323 117.2580481 -38.15309021 116.46531494 -37.95626831 115.64855957 C-32.90194471 94.65539697 -28.52693103 73.50787846 -24.14648438 52.36585999 C-23.10115121 47.32776677 -22.02050579 42.30368218 -20.84202576 37.29486084 C-20.33313519 34.63367031 -20.33429285 32.06136761 -20.47265625 29.36328125 C-19.81265625 29.36328125 -19.15265625 29.36328125 -18.47265625 29.36328125 C-18.39015625 28.22890625 -18.30765625 27.09453125 -18.22265625 25.92578125 C-17.66832303 21.04608743 -16.71238826 16.28059996 -15.66015625 11.48828125 C-15.50708008 10.73877197 -15.35400391 9.9892627 -15.19628906 9.21704102 C-14.53561518 6.32544803 -13.95968514 3.92358068 -11.98779297 1.6550293 C-8.08731851 -0.3482138 -4.32198935 -0.0447924 0 0 Z M258.33984375 33.98828125 C241.32018813 52.04345413 232.65172845 78.24765334 227.08984375 101.92578125 C226.84282715 102.9710498 226.59581055 104.01631836 226.34130859 105.09326172 C224.21393144 114.67783122 222.69184148 124.63546516 224.15234375 134.42578125 C224.28898437 135.46863281 224.425625 136.51148438 224.56640625 137.5859375 C225.80250331 141.1585595 227.35841089 142.37218184 230.52734375 144.36328125 C236.434421 145.24934284 240.25112299 144.14960958 245.3046875 141.01171875 C267.26944913 124.72150889 272.43828243 88.08729189 279.52734375 63.36328125 C279.81878265 62.35642273 280.11022156 61.34956421 280.41049194 60.31219482 C281.25200973 57.39469927 282.07923119 54.47351621 282.90234375 51.55078125 C283.15297073 50.6869986 283.40359772 49.82321594 283.66181946 48.93325806 C285.37380425 42.76585249 286.13316692 36.74696739 286.52734375 30.36328125 C285.86734375 30.36328125 285.20734375 30.36328125 284.52734375 30.36328125 C283.86734375 28.71328125 283.20734375 27.06328125 282.52734375 25.36328125 C272.10103552 23.17711985 265.89570274 26.81021521 258.33984375 33.98828125 Z " fill="#E72D3D" transform="translate(309.47265625,407.63671875)"/>
<path d="M0 0 C6.76627809 6.76627809 8.74049366 16.27820167 9.16015625 25.53125 C8.34437209 58.68471807 -6.37429843 92.99988475 -15.80517578 124.63305664 C-17.93821242 131.78810568 -20.06040319 138.94633603 -22.1796875 146.10546875 C-24.24157647 153.07037263 -26.30629923 160.03437621 -28.38394165 166.99459839 C-29.63392235 171.18301938 -30.87998069 175.37260191 -32.125 179.5625 C-32.39125183 180.45759277 -32.65750366 181.35268555 -32.93182373 182.27490234 C-36.34199772 193.75748217 -39.65284651 205.26305714 -42.84375 216.80859375 C-43.16092987 217.9539711 -43.47810974 219.09934845 -43.80490112 220.2794342 C-45.3553343 225.88419871 -46.89481182 231.49165433 -48.41845703 237.10375977 C-48.97922401 239.14216364 -49.54024608 241.18049736 -50.1015625 243.21875 C-50.35103638 244.15210678 -50.60051025 245.08546356 -50.85754395 246.04710388 C-51.09614136 246.90747757 -51.33473877 247.76785126 -51.58056641 248.65429688 C-51.7834024 249.40094604 -51.9862384 250.14759521 -52.19522095 250.91687012 C-53.13626738 253.35272122 -54.2621074 255.05328429 -56 257 C-59.57241279 258.19080426 -62.83595718 258.16216094 -66.5546875 258.16796875 C-67.29324982 258.17129715 -68.03181213 258.17462555 -68.79275513 258.17805481 C-70.35450621 258.18311412 -71.91626808 258.18546344 -73.47802734 258.18530273 C-75.85923226 258.18748555 -78.239971 258.20564119 -80.62109375 258.22460938 C-82.14062342 258.2275443 -83.66015529 258.22952843 -85.1796875 258.23046875 C-85.88817841 258.23765427 -86.59666931 258.24483978 -87.32662964 258.25224304 C-91.30284819 258.23400186 -94.52331714 258.01091337 -98 256 C-100.2181062 253.36102237 -99.99468667 251.93760393 -99.69946289 248.47070312 C-99.45243683 247.07128556 -99.18823304 245.67482981 -98.91015625 244.28125 C-98.76804214 243.52992798 -98.62592804 242.77860596 -98.47950745 242.0045166 C-96.91324657 234.03990347 -94.73442196 226.27907764 -92.4375 218.5 C-92.00283738 217.00084281 -91.56885084 215.50148946 -91.13549805 214.00195312 C-88.85542754 206.14638185 -86.4958892 198.31662991 -84.0859375 190.5 C-83.85175613 189.73796265 -83.61757477 188.97592529 -83.376297 188.1907959 C-82.25053902 184.52992393 -81.11524976 180.87259855 -79.96069336 177.22070312 C-79.55295744 175.90763441 -79.14547265 174.59448768 -78.73828125 173.28125 C-78.37774658 172.13720703 -78.01721191 170.99316406 -77.64575195 169.81445312 C-76.72994732 166.94286884 -76.72994732 166.94286884 -78 164 C-78.66 164.33 -79.32 164.66 -80 165 C-80 164.01 -80 163.02 -80 162 C-93.2 162.33 -106.4 162.66 -120 163 C-124.20117044 171.40234088 -127.58650982 179.04542657 -130.375 187.875 C-131.1512116 190.26771813 -131.92989172 192.65963675 -132.7109375 195.05078125 C-133.09475586 196.22721191 -133.47857422 197.40364258 -133.87402344 198.61572266 C-135.78234846 204.35145585 -137.8721821 210.01699476 -139.97119141 215.68505859 C-141.83755304 220.74585917 -143.63275399 225.8232167 -145.359375 230.93359375 C-145.75769531 232.10849365 -146.15601563 233.28339355 -146.56640625 234.49389648 C-147.33682775 236.77607948 -148.10022413 239.06065006 -148.85546875 241.34790039 C-153.33161521 254.57856131 -153.33161521 254.57856131 -158.12060547 257.12963867 C-161.80338004 258.24283957 -165.30602941 258.30547716 -169.1171875 258.30078125 C-169.89256866 258.30506638 -170.66794983 258.3093515 -171.46682739 258.31376648 C-173.10238675 258.31949241 -174.73797156 258.32002287 -176.37353516 258.31567383 C-178.86014851 258.31251884 -181.34556519 258.33597612 -183.83203125 258.36132812 C-185.42708185 258.36360199 -187.02213561 258.36430421 -188.6171875 258.36328125 C-189.72065018 258.37709587 -189.72065018 258.37709587 -190.84640503 258.39118958 C-195.92598474 258.34625201 -199.44564657 257.26073771 -204 255 C-203.57850556 247.69475209 -202.09425266 241.27394246 -199.75390625 234.359375 C-199.42684692 233.36581497 -199.0997876 232.37225494 -198.76281738 231.34858704 C-197.70586453 228.14570858 -196.63446499 224.94788176 -195.5625 221.75 C-194.83236888 219.54773724 -194.10312496 217.34518014 -193.37475586 215.14233398 C-191.58658826 209.74165372 -189.78694314 204.34488238 -187.98388672 198.94915771 C-186.56432733 194.69409008 -185.15683752 190.43506799 -183.75 186.17578125 C-182.0795906 181.12711782 -180.40774894 176.07894083 -178.72265625 171.03515625 C-178.41078369 170.1006665 -178.09891113 169.16617676 -177.77758789 168.20336914 C-177 166 -177 166 -176 164 C-177.50566528 164.02356567 -177.50566528 164.02356567 -179.04174805 164.04760742 C-182.77831955 164.10205114 -186.51485621 164.13640226 -190.25170898 164.16479492 C-191.86667789 164.17984876 -193.48160613 164.20029648 -195.09643555 164.22631836 C-197.42246555 164.26285286 -199.74795341 164.27976015 -202.07421875 164.29296875 C-203.15107185 164.31619453 -203.15107185 164.31619453 -204.24967957 164.33988953 C-208.69733581 164.34137088 -211.45980476 163.72181351 -215 161 C-219.07762565 155.69374479 -218.59481258 150.41256853 -218 144 C-216.8432815 138.0191377 -214.95106039 133.799651 -210 130 C-204.26695454 127.35821265 -198.54396023 127.81637234 -192.375 127.9375 C-178.51380728 128.45250379 -178.51380728 128.45250379 -165 126 C-164.89985596 125.30052246 -164.79971191 124.60104492 -164.6965332 123.88037109 C-163.42628677 115.61463327 -161.44572173 107.67124389 -159.1875 99.625 C-158.6915332 97.80742187 -158.6915332 97.80742187 -158.18554688 95.953125 C-154.92445409 84.21068727 -151.42917365 72.60082304 -145.3125 62 C-144.8896875 61.25161865 -144.466875 60.5032373 -144.03125 59.73217773 C-139.84144953 52.45950601 -135.0129087 45.7192257 -130 39 C-129.34 38.01 -128.68 37.02 -128 36 C-127.34 36 -126.68 36 -126 36 C-125.66548828 35.18208984 -125.66548828 35.18208984 -125.32421875 34.34765625 C-116.79885279 19.23336438 -96.84574795 7.93002685 -82 0 C-80.67023067 -0.3472786 -79.33825162 -0.68699604 -78 -1 C-77.67 -1.66 -77.34 -2.32 -77 -3 C-53.68270531 -11.84449109 -20.31756241 -18.38715268 0 0 Z M-74 33 C-74 33.66 -74 34.32 -74 35 C-74.87591797 35.36738281 -74.87591797 35.36738281 -75.76953125 35.7421875 C-82.59961876 39.59383054 -86.79485558 47.98695393 -90.625 54.625 C-90.97264404 55.2142627 -91.32028809 55.80352539 -91.6784668 56.41064453 C-98.89573537 69.34557683 -102.66644119 84.06841399 -106.57958984 98.24902344 C-107.38435824 101.15883672 -108.2052155 104.06379951 -109.02734375 106.96875 C-109.54783302 108.83567067 -110.06739903 110.70284905 -110.5859375 112.5703125 C-110.82960052 113.42972443 -111.07326355 114.28913635 -111.3243103 115.17459106 C-112.52378824 119.56666111 -113.28796808 123.39903434 -113 128 C-106.48554795 128.0505939 -99.97114632 128.08568856 -93.45654297 128.10986328 C-91.23907579 128.11993825 -89.02162195 128.13359859 -86.80419922 128.15087891 C-83.62203688 128.17506163 -80.44004976 128.18646797 -77.2578125 128.1953125 C-76.26194122 128.20563507 -75.26606995 128.21595764 -74.24002075 128.22659302 C-73.31921722 128.22674408 -72.3984137 128.22689514 -71.44970703 128.22705078 C-70.6369632 128.231492 -69.82421936 128.23593323 -68.98684692 128.24050903 C-66.76787325 128.1792112 -66.76787325 128.1792112 -65 126 C-64.44254404 124.10791163 -63.97551988 122.18880351 -63.5546875 120.26171875 C-63.15262085 118.46541016 -63.15262085 118.46541016 -62.74243164 116.6328125 C-62.60161163 115.99118164 -62.46079163 115.34955078 -62.31570435 114.68847656 C-59.05862502 99.90001476 -55.14431324 85.33914327 -51.046875 70.76171875 C-49.3561454 64.68644785 -47.72191654 58.59630379 -46.09689331 52.50317383 C-45.74422525 51.18119729 -45.3908266 49.85941541 -45.03665161 48.5378418 C-44.5449014 46.70275747 -44.05560366 44.8670165 -43.56640625 43.03125 C-43.28740479 41.98517578 -43.00840332 40.93910156 -42.72094727 39.86132812 C-41.56391536 35.26924754 -40.84485715 31.05605861 -40.8125 26.3125 C-40.79832031 25.35988281 -40.78414063 24.40726562 -40.76953125 23.42578125 C-40.75741803 20.81787718 -40.75741803 20.81787718 -43 19 C-54.54467539 18.03310926 -65.9393329 25.36357854 -74 33 Z " fill="#E82D3D" transform="translate(280,324)"/>
<path d="M0 0 C1.01126953 -0.00580078 1.01126953 -0.00580078 2.04296875 -0.01171875 C6.02051148 -0.00431178 9.90329806 0.23026438 13.859375 0.640625 C19.79325788 1.16939614 25.67418915 1.16993656 31.625 1.1171875 C32.60394226 1.1093222 33.58288452 1.10145691 34.5914917 1.09335327 C38.68828686 1.05672511 42.78483229 1.01429767 46.88134766 0.95361328 C49.90009917 0.91138966 52.91853484 0.88789341 55.9375 0.8671875 C56.86353027 0.84856659 57.78956055 0.82994568 58.74365234 0.8107605 C62.23549611 0.79676603 65.06856835 0.87633856 68.36328125 2.07861328 C70.72510402 5.56396512 70.25327682 9.05966142 69.75 13.125 C69.0322963 16.52387349 68.02283375 19.79066627 66.953125 23.09375 C66.50197075 24.54084854 66.50197075 24.54084854 66.04170227 26.0171814 C65.03935292 29.22353948 64.019481 32.42405209 63 35.625 C62.28497409 37.9033688 61.57138485 40.18218891 60.85913086 42.46142578 C59.52077371 46.74154626 58.17910803 51.020589 56.83264446 55.29816628 C52.91709791 67.74233717 49.08577249 80.21240134 45.25431633 92.68266678 C43.98894007 96.80103465 42.72148123 100.91875114 41.45163441 105.03574276 C37.19319695 118.84226564 32.9683637 132.6583478 28.8125 146.49609375 C28.4415773 147.72991791 28.0706546 148.96374207 27.68849182 150.23495483 C25.97842115 155.94431936 24.29373974 161.65707141 22.7162323 167.40460205 C18.82718026 181.4380069 13.36326597 195.30634053 4.75 207.125 C3.90308594 208.30255859 3.90308594 208.30255859 3.0390625 209.50390625 C-12.09606952 229.74115291 -33.09290341 239.90155795 -57.59765625 243.875 C-67.73339937 245.28211167 -77.97171905 245.34834729 -88.1875 245.4375 C-89.49106445 245.45530518 -90.79462891 245.47311035 -92.13769531 245.49145508 C-100.02311277 245.48491576 -107.85990022 245.15176686 -115.25 242.125 C-117.25 239.125 -117.25 239.125 -117.11328125 235.8515625 C-116.16310809 231.74991004 -114.70921117 229.03189975 -112.4375 225.5 C-111.40689453 223.87191406 -111.40689453 223.87191406 -110.35546875 222.2109375 C-109.66066406 221.19257812 -108.96585938 220.17421875 -108.25 219.125 C-107.70988281 218.25101563 -107.16976562 217.37703125 -106.61328125 216.4765625 C-100.94874682 210.84011667 -94.36337548 209.88638416 -86.58984375 209.8046875 C-83.78763491 209.83530367 -80.98842875 209.91205976 -78.1875 210 C-64.80354618 210.351847 -52.62675512 210.62634648 -42.08203125 201.18359375 C-33.32565964 192.00008206 -28.88083667 180.44962064 -29.1796875 167.8125 C-29.20289063 167.255625 -29.22609375 166.69875 -29.25 166.125 C-29.79785156 166.32996094 -30.34570312 166.53492188 -30.91015625 166.74609375 C-44.27869088 171.28922178 -59.10515894 171.62023747 -72.16796875 165.83203125 C-74.68782875 164.41008302 -76.95633959 162.88612865 -79.25 161.125 C-79.88292969 160.64546875 -80.51585937 160.1659375 -81.16796875 159.671875 C-89.60628899 152.29533016 -94.46400741 140.09978543 -95.25 129.125 C-97.36518508 93.32353407 -84.29277756 56.35309839 -61.25 29.125 C-60.72148438 28.45082031 -60.19296875 27.77664063 -59.6484375 27.08203125 C-47.57162186 12.17935974 -29.28382191 2.55024237 -10.36474609 0.31689453 C-6.90721236 0.00315388 -3.46954454 -0.01945539 0 0 Z M-22.83935547 43.31958008 C-36.15613625 65.15106409 -48.41373712 95.36603401 -48.4375 121.125 C-48.44974609 121.82367187 -48.46199219 122.52234375 -48.47460938 123.2421875 C-48.48613773 127.315541 -48.18180983 130.51192223 -46.25 134.125 C-42.00670753 137.94396322 -39.32548295 139.51644357 -33.52734375 139.390625 C-25.87373523 138.49792281 -21.046122 134.44651829 -16.15380859 128.77954102 C-12.95985235 124.326106 -11.41794395 119.50933209 -9.8125 114.3125 C-9.30686523 112.77819336 -9.30686523 112.77819336 -8.79101562 111.21289062 C-7.15075885 106.20364983 -7.15075885 106.20364983 -5.75 101.12426758 C-5.15074576 98.72812845 -4.42236847 96.38816108 -3.68359375 94.03125 C-3.36656494 93.01369629 -3.04953613 91.99614258 -2.72290039 90.94775391 C-2.38121826 89.85124512 -2.03953613 88.75473633 -1.6875 87.625 C10.39804276 57.56248837 10.39804276 57.56248837 10.9140625 27.0078125 C8.65379786 23.83737418 6.77178497 23.12899391 3 22.4375 C-9.03977965 23.43514652 -16.89449088 33.92850848 -22.83935547 43.31958008 Z " fill="#E72D3D" transform="translate(744.25,406.875)"/>
<path d="M0 0 C7.65378366 7.21986837 12.56934926 17.62003377 13.8125 28.0625 C13.94398438 28.96484375 14.07546875 29.8671875 14.2109375 30.796875 C18.18093383 65.55639839 4.06187617 105.90074093 -17.1875 133.0625 C-30.2452153 149.44907364 -47.04878497 158.7361396 -67.1875 164.0625 C-68.06664062 164.31257812 -68.94578125 164.56265625 -69.8515625 164.8203125 C-82.47969226 167.834277 -96.81779289 164.95449397 -108.1875 159.0625 C-111.4182483 156.97175075 -114.49501032 154.82456305 -117.1875 152.0625 C-117.1875 151.4025 -117.1875 150.7425 -117.1875 150.0625 C-117.8475 150.0625 -118.5075 150.0625 -119.1875 150.0625 C-130.44154905 134.48238195 -132.07303667 116.0820205 -129.36401367 97.4909668 C-127.79854969 87.85354636 -125.39187098 78.44475153 -122.74560547 69.05371094 C-122.28418907 67.40746764 -121.84429304 65.75520918 -121.41015625 64.1015625 C-114.61946668 39.26933675 -97.85915479 11.93325492 -75.11279297 -1.12890625 C-70.55178212 -3.57582273 -65.9044821 -5.80859658 -61.1875 -7.9375 C-60.36765625 -8.31648438 -59.5478125 -8.69546875 -58.703125 -9.0859375 C-55.33670947 -10.22550052 -51.95179957 -10.66198534 -48.4375 -11.0625 C-47.72013672 -11.1452417 -47.00277344 -11.2279834 -46.26367188 -11.31323242 C-29.45702427 -13.16645864 -13.4532423 -10.87151064 0 0 Z M-55.1640625 31.8984375 C-55.83179688 32.94257813 -56.49953125 33.98671875 -57.1875 35.0625 C-57.89648438 36.16851562 -58.60546875 37.27453125 -59.3359375 38.4140625 C-73.08372445 60.87485085 -85.40780293 92.73004768 -85.5 119.375 C-85.51675781 120.50550781 -85.53351562 121.63601563 -85.55078125 122.80078125 C-85.13724009 126.51375835 -84.17540195 128.91072102 -82.1875 132.0625 C-81.1975 132.3925 -80.2075 132.7225 -79.1875 133.0625 C-78.1975 132.5675 -78.1975 132.5675 -77.1875 132.0625 C-77.1875 132.7225 -77.1875 133.3825 -77.1875 134.0625 C-70.06367376 133.08714077 -65.56281227 128.03737557 -61.25 122.5625 C-60.20686128 121.07792521 -59.18891461 119.57553321 -58.1875 118.0625 C-57.52105469 117.0725 -56.85460937 116.0825 -56.16796875 115.0625 C-40.24595742 90.50217695 -24.65600906 52.87243823 -28.1875 23.0625 C-29.67790234 20.51049822 -30.55638032 19.37805984 -33.1875 18.0625 C-33.1875 17.7325 -33.1875 17.4025 -33.1875 17.0625 C-43.53967423 15.52068682 -49.82305843 24.06637225 -55.1640625 31.8984375 Z " fill="#E72E3D" transform="translate(940.1875,417.9375)"/>
<path d="M0 0 C5.92006527 4.07714516 8.76465369 10.08924282 10.51953125 16.94921875 C11.68076301 29.25827541 10.79823297 40.44955975 3.20703125 50.69921875 C-3.82096306 58.73307842 -12.14026213 62.63424494 -22.66796875 63.57421875 C-29.32426317 62.97990675 -34.9332341 60.42571223 -40.16796875 56.26171875 C-46.68697225 47.93188094 -46.97642138 39.49875022 -46.16796875 29.26171875 C-43.79981399 17.03073762 -38.25746341 7.60496042 -28.16796875 0.26171875 C-19.98676137 -4.81062983 -8.43261221 -4.45880237 0 0 Z " fill="#E82E3D" transform="translate(490.16796875,330.73828125)"/>
<path d="M0 0 C0.33 0 0.66 0 1 0 C1.08160748 1.89510699 1.13946459 3.79124504 1.1875 5.6875 C1.23970703 7.27111328 1.23970703 7.27111328 1.29296875 8.88671875 C1 12 1 12 -2 17 C-15.86 16.67 -29.72 16.34 -44 16 C-40.67844937 13.78563291 -39.73137077 13.76882275 -35.87890625 13.83984375 C-34.86594482 13.85152588 -33.8529834 13.86320801 -32.80932617 13.87524414 C-31.20214722 13.90606079 -31.20214722 13.90606079 -29.5625 13.9375 C-15.60723259 14.46147853 -15.60723259 14.46147853 -2 12 C-1.34 8.04 -0.68 4.08 0 0 Z " fill="#E84850" transform="translate(117,438)"/>
<path d="M0 0 C18.81 0.495 18.81 0.495 38 1 C37 3 37 3 35.36547852 3.61669922 C32.27106554 4.11811612 29.28764257 4.12990618 26.15234375 4.1328125 C25.49923721 4.13376923 24.84613068 4.13472595 24.17323303 4.13571167 C22.79737247 4.1363901 21.42150865 4.13455939 20.0456543 4.13037109 C17.94117046 4.12500935 15.83689919 4.13033187 13.73242188 4.13671875 C12.3932287 4.13605808 11.05403565 4.13477714 9.71484375 4.1328125 C7.89134399 4.13112061 7.89134399 4.13112061 6.03100586 4.12939453 C3 4 3 4 0 3 C0 2.01 0 1.02 0 0 Z " fill="#E83945" transform="translate(67,484)"/>
<path d="M0 0 C0.33 0 0.66 0 1 0 C2.13680149 6.30277281 1.67954902 11.07298404 0.125 17.25 C-0.06191406 18.03890625 -0.24882812 18.8278125 -0.44140625 19.640625 C-1.11514478 22.46937115 -1.81928449 25.2895642 -2.53613281 28.10766602 C-2.87819115 29.50308399 -3.16849941 30.9114286 -3.4296875 32.32421875 C-3.57664062 33.10410156 -3.72359375 33.88398437 -3.875 34.6875 C-4.01679688 35.47511719 -4.15859375 36.26273438 -4.3046875 37.07421875 C-4.53414063 37.70972656 -4.76359375 38.34523438 -5 39 C-6.485 39.495 -6.485 39.495 -8 40 C-7.29249784 32.80116549 -5.67617374 25.90386064 -4 18.875 C-3.45664707 16.58112794 -2.91492502 14.28686883 -2.375 11.9921875 C-2.01535156 10.48180908 -2.01535156 10.48180908 -1.6484375 8.94091797 C-0.993874 5.9722162 -0.47350889 3.00242607 0 0 Z " fill="#E83B45" transform="translate(281,480)"/>
<path d="M0 0 C1.38150378 0.01006974 2.76301484 0.0191884 4.14453125 0.02734375 C7.47154732 0.0506096 10.79817285 0.08329436 14.125 0.125 C14.125 0.785 14.125 1.445 14.125 2.125 C13.22668457 2.15005615 12.32836914 2.1751123 11.40283203 2.20092773 C8.07425131 2.29598693 4.74585006 2.39522421 1.41748047 2.49731445 C-0.0238762 2.54066231 -1.46528418 2.58233752 -2.90673828 2.62231445 C-4.97704541 2.68002088 -7.04709432 2.74371371 -9.1171875 2.80859375 C-10.3635498 2.84525146 -11.60991211 2.88190918 -12.89404297 2.91967773 C-15.80136942 2.92789479 -15.80136942 2.92789479 -17.875 4.125 C-19.91998425 4.03719597 -21.96244948 3.88258462 -24 3.6875 C-25.09570312 3.58566406 -26.19140625 3.48382813 -27.3203125 3.37890625 C-28.58488281 3.25322266 -28.58488281 3.25322266 -29.875 3.125 C-29.875 2.795 -29.875 2.465 -29.875 2.125 C-19.8136058 0.38500065 -10.21312807 -0.13029506 0 0 Z " fill="#E81E2C" transform="translate(633.875,408.875)"/>
<path d="M0 0 C-0.33 0.66 -0.66 1.32 -1 2 C-15.19 2.33 -29.38 2.66 -44 3 C-43.01 2.67 -42.02 2.34 -41 2 C-41 1.34 -41 0.68 -41 0 C-39.59306885 0.00785522 -39.59306885 0.00785522 -38.15771484 0.01586914 C-34.65770852 0.03297297 -31.15774701 0.04548027 -27.65771484 0.05493164 C-26.14663998 0.05994162 -24.63556991 0.06675144 -23.12451172 0.07543945 C-20.94497488 0.08765176 -18.76550247 0.09326178 -16.5859375 0.09765625 C-15.2767334 0.10289307 -13.9675293 0.10812988 -12.61865234 0.11352539 C-9.03893899 0.08543289 -9.03893899 0.08543289 -5.71337891 -0.56860352 C-3 -1 -3 -1 0 0 Z " fill="#E94851" transform="translate(691,617)"/>
<path d="M0 0 C7.23186925 -0.49029622 7.23186925 -0.49029622 10.9375 1.875 C14.36244579 5.40373203 14.20613667 7.88400715 14.16796875 12.6015625 C13.9324156 15.96504241 13.08446158 18.81439411 12 22 C11.67 22 11.34 22 11 22 C9.5997208 16.53891111 10.57294366 12.30723432 12 7 C11.01 7.33 10.02 7.66 9 8 C8.67 6.02 8.34 4.04 8 2 C5.36 2 2.72 2 0 2 C0 1.34 0 0.68 0 0 Z " fill="#E9303B" transform="translate(584,431)"/>
<path d="M0 0 C0.89130413 2.6739124 1.47731534 5.23723823 2 8 C5.3 8 8.6 8 12 8 C12 8.66 12 9.32 12 10 C12.99 10.33 13.98 10.66 15 11 C16.16063604 15.25566547 15.76173392 18.6835078 15 23 C14.67 23 14.34 23 14 23 C13.67 19.37 13.34 15.74 13 12 C10.75390625 12.03255208 8.5078125 12.06510417 6.26171875 12.09765625 C4 12 4 12 1 11 C-1.29633824 7.55549263 -1.54016485 5.06187717 -2 1 C-1.34 0.67 -0.68 0.34 0 0 Z " fill="#E8454D" transform="translate(614,547)"/>
<path d="M0 0 C2.43780377 0.15269181 4.85283901 0.25682697 7.29296875 0.31640625 C7.99899734 0.33718735 8.70502594 0.35796844 9.43244934 0.37937927 C11.68403551 0.44467491 13.93573662 0.50366647 16.1875 0.5625 C17.7155066 0.60570425 19.24350164 0.64931916 20.77148438 0.69335938 C24.51420562 0.80033574 28.2570423 0.90165922 32 1 C32 1.33 32 1.66 32 2 C5.35708469 4.59478827 5.35708469 4.59478827 -7 1 C-3.375 -1.125 -3.375 -1.125 0 0 Z " fill="#E84B53" transform="translate(588,580)"/>
<path d="M0 0 C1.18719263 4.36503148 0.67009018 7.53273214 0 12 C-0.66 12 -1.32 12 -2 12 C-1.97679687 12.59167969 -1.95359375 13.18335938 -1.9296875 13.79296875 C-1.82685992 18.29534782 -1.74421004 21.96332324 -4 26 C-4.98156578 27.01810049 -5.97924558 28.02119439 -7 29 C-5.53869493 19.09802233 -2.76626489 9.59746099 0 0 Z " fill="#E83C45" transform="translate(236,365)"/>
<path d="M0 0 C0.99 0 1.98 0 3 0 C2.68872484 1.58357459 2.37592711 3.16684993 2.0625 4.75 C1.88847656 5.63171875 1.71445312 6.5134375 1.53515625 7.421875 C1.2228777 8.92628261 0.88122978 10.42617548 0.46875 11.90625 C-0.18799176 14.83969655 -0.35273526 17.75336088 -0.5625 20.75 C-0.64628906 21.92046875 -0.73007812 23.0909375 -0.81640625 24.296875 C-0.87699219 25.18890625 -0.93757813 26.0809375 -1 27 C-1.33 27 -1.66 27 -2 27 C-3.10621685 17.24396702 -3.1173176 9.45762457 0 0 Z " fill="#ED4C55" transform="translate(449,515)"/>
<path d="M0 0 C1.74388846 2.60955971 2.04494348 3.71967459 1.5390625 6.875 C1.23742187 7.90625 0.93578125 8.9375 0.625 10 C-0.41639052 13.62222788 -1 16.19014612 -1 20 C-1.99 19.67 -2.98 19.34 -4 19 C-3.59060025 12.23784552 -2.43046191 6.32837252 0 0 Z " fill="#E83E49" transform="translate(80,560)"/>
<path d="M0 0 C0.625 1.875 0.625 1.875 1 4 C0.34 4.66 -0.32 5.32 -1 6 C-1.28875 6.763125 -1.5775 7.52625 -1.875 8.3125 C-3.16767975 11.40056829 -4.74229988 13.53705441 -7 16 C-7.99 16.33 -8.98 16.66 -10 17 C-8.57394582 13.07297642 -6.70550338 9.75380481 -4.4375 6.25 C-3.81746094 5.28578125 -3.19742188 4.3215625 -2.55859375 3.328125 C-1 1 -1 1 0 0 Z " fill="#E93944" transform="translate(517,444)"/>
<path d="M0 0 C1.14176746 3.42530237 0.83108216 4.31673674 -0.21484375 7.66796875 C-0.48876953 8.56064453 -0.76269531 9.45332031 -1.04492188 10.37304688 C-1.33947266 11.30181641 -1.63402344 12.23058594 -1.9375 13.1875 C-2.22818359 14.12787109 -2.51886719 15.06824219 -2.81835938 16.03710938 C-3.53781887 18.36060971 -4.26529186 20.68128518 -5 23 C-5.66 21.68 -6.32 20.36 -7 19 C-6.34 18.67 -5.68 18.34 -5 18 C-5.061875 17.05125 -5.12375 16.1025 -5.1875 15.125 C-5.19754109 10.22494955 -3.88158463 5.50544578 -2 1 C-1.34 0.67 -0.68 0.34 0 0 Z " fill="#EA3E47" transform="translate(804,446)"/>
<path d="M0 0 C2 1 2 1 2.68725586 2.77832031 C3.05067668 5.35999824 2.69840114 7.03991783 2.00390625 9.546875 C1.77509766 10.39121094 1.54628906 11.23554688 1.31054688 12.10546875 C1.06369141 12.97816406 0.81683594 13.85085938 0.5625 14.75 C0.31951172 15.63816406 0.07652344 16.52632813 -0.17382812 17.44140625 C-0.77396316 19.63013403 -1.38293345 21.81599686 -2 24 C-3.15854512 20.03155067 -2.69267935 17.08680817 -2 13 C-1.814375 11.700625 -1.62875 10.40125 -1.4375 9.0625 C-1.293125 8.051875 -1.14875 7.04125 -1 6 C-0.34 6 0.32 6 1 6 C0.67 4.02 0.34 2.04 0 0 Z " fill="#EA4750" transform="translate(480,410)"/>
<path d="M0 0 C1.13087014 3.39261042 0.86514295 4.16517757 -0.21484375 7.44921875 C-0.62573242 8.72055664 -0.62573242 8.72055664 -1.04492188 10.01757812 C-1.48674805 11.33918945 -1.48674805 11.33918945 -1.9375 12.6875 C-2.22818359 13.58017578 -2.51886719 14.47285156 -2.81835938 15.39257812 C-3.53769987 17.59776948 -4.26516672 19.79993258 -5 22 C-5.66 21.01 -6.32 20.02 -7 19 C-6.1875 16.125 -6.1875 16.125 -5 13 C-4.835 12.175 -4.67 11.35 -4.5 10.5 C-3.91334434 7.56672169 -2.98433639 4.82176431 -2 2 C-1.34 2 -0.68 2 0 2 C0 1.34 0 0.68 0 0 Z " fill="#E93943" transform="translate(458,492)"/>
<path d="M0 0 C1.8871875 0.0309375 1.8871875 0.0309375 3.8125 0.0625 C1.51965382 2.35534618 0.08316244 2.7421154 -3 3.625 C-3.85207031 3.87378906 -4.70414063 4.12257813 -5.58203125 4.37890625 C-12.77845379 6.26702311 -12.77845379 6.26702311 -15.1875 5.0625 C-13.917947 4.41415346 -12.64680294 3.76892185 -11.375 3.125 C-10.66730469 2.76535156 -9.95960938 2.40570313 -9.23046875 2.03515625 C-6.02548401 0.50926485 -3.50770734 -0.0575034 0 0 Z " fill="#EA3B46" transform="translate(563.1875,410.9375)"/>
<path d="M0 0 C5.28 0 10.56 0 16 0 C16 0.33 16 0.66 16 1 C14.35 1 12.7 1 11 1 C11 1.66 11 2.32 11 3 C7.05352382 3.98844951 3.72607036 3.96191905 -0.3125 3.5625 C-1.38113281 3.46066406 -2.44976563 3.35882812 -3.55078125 3.25390625 C-4.35902344 3.17011719 -5.16726563 3.08632813 -6 3 C-6 2.67 -6 2.34 -6 2 C-4.02 1.67 -2.04 1.34 0 1 C0 0.67 0 0.34 0 0 Z " fill="#E84048" transform="translate(856,580)"/>
<path d="M0 0 C0.33 0 0.66 0 1 0 C1.62774507 8.78843098 -0.69215289 16.60314556 -3 25 C-4.36398513 22.75700222 -5.05762059 21.50929167 -4.7578125 18.859375 C-4.171875 16.90625 -3.5859375 14.953125 -3 13 C-2.34 13 -1.68 13 -1 13 C-0.67 8.71 -0.34 4.42 0 0 Z " fill="#EA4B54" transform="translate(287,355)"/>
<path d="M0 0 C0.33 0.66 0.66 1.32 1 2 C0.07421875 4.20703125 0.07421875 4.20703125 -1.3125 6.8125 C-3.07804004 10.15640248 -4.64874945 13.46644809 -6 17 C-7.48245806 13.14560905 -6.49751527 10.74378818 -5 7 C-2.36585366 1.18292683 -2.36585366 1.18292683 0 0 Z " fill="#E93D45" transform="translate(388,485)"/>
<path d="M0 0 C1.23853632 3.61094391 0.79209453 6.40571952 0.125 10.125 C-0.05804687 11.17945313 -0.24109375 12.23390625 -0.4296875 13.3203125 C-1 16 -1 16 -2 18 C-2.66 18 -3.32 18 -4 18 C-4.33 18.66 -4.66 19.32 -5 20 C-4.35346673 13.04976736 -2.13972752 6.61822697 0 0 Z " fill="#EA4750" transform="translate(820,479)"/>
<path d="M0 0 C0.33 0 0.66 0 1 0 C1.33 2.64 1.66 5.28 2 8 C2.33 8 2.66 8 3 8 C3.18451025 18.55808656 3.18451025 18.55808656 2 23 C1.67 23 1.34 23 1 23 C0.13190561 17.79826905 -0.12515348 12.83021184 -0.0625 7.5625 C-0.05798828 6.83095703 -0.05347656 6.09941406 -0.04882812 5.34570312 C-0.03718148 3.56376581 -0.01925191 1.78187137 0 0 Z " fill="#EA4F57" transform="translate(649,520)"/>
<path d="M0 0 C1.51553092 3.97450493 0.49888623 7.20481149 -0.4375 11.25 C-0.72496094 12.51328125 -1.01242187 13.7765625 -1.30859375 15.078125 C-1.53675781 16.04234375 -1.76492188 17.0065625 -2 18 C-2.33 18 -2.66 18 -3 18 C-4.0685707 11.76185756 -4.04577657 7.02965725 -2 1 C-1.34 0.67 -0.68 0.34 0 0 Z " fill="#EA414A" transform="translate(537,504)"/>
<path d="M0 0 C1.65 0 3.3 0 5 0 C0.27635641 4.41889239 -5.49690751 7 -12 7 C-12 6.34 -12 5.68 -12 5 C-10.54293274 4.49632243 -9.08429904 3.99717444 -7.625 3.5 C-6.81289063 3.2215625 -6.00078125 2.943125 -5.1640625 2.65625 C-3 2 -3 2 -1 2 C-0.67 1.34 -0.34 0.68 0 0 Z " fill="#E73E47" transform="translate(713,640)"/>
<path d="M0 0 C0.99 0.33 1.98 0.66 3 1 C2.360625 1.103125 1.72125 1.20625 1.0625 1.3125 C0.381875 1.539375 -0.29875 1.76625 -1 2 C-1.33 2.99 -1.66 3.98 -2 5 C-4.8125 7.25 -4.8125 7.25 -8 9 C-10.19921875 8.609375 -10.19921875 8.609375 -12 8 C-10.37615858 6.85252535 -8.75088944 5.7070709 -7.125 4.5625 C-6.22007812 3.92441406 -5.31515625 3.28632813 -4.3828125 2.62890625 C-2 1 -2 1 0 0 Z " fill="#E83944" transform="translate(191,328)"/>
<path d="M0 0 C1.31225809 3.93677426 0.3393954 5.7794262 -0.9375 9.6875 C-1.50791016 11.45673828 -1.50791016 11.45673828 -2.08984375 13.26171875 C-2.39019531 14.16535156 -2.69054687 15.06898438 -3 16 C-3.33 16 -3.66 16 -4 16 C-4.3690205 6.58997722 -4.3690205 6.58997722 -2 2 C-1.34 2 -0.68 2 0 2 C0 1.34 0 0.68 0 0 Z " fill="#E93A44" transform="translate(792,485)"/>
<path d="M0 0 C0.33 0 0.66 0 1 0 C1.22134176 2.12368444 1.42670007 4.24904024 1.625 6.375 C1.74101563 7.55835938 1.85703125 8.74171875 1.9765625 9.9609375 C1.98429688 10.96382813 1.99203125 11.96671875 2 13 C1.34 13.66 0.68 14.32 0 15 C-0.16681109 18.08347826 -0.16681109 18.08347826 0 21 C-0.99 21 -1.98 21 -3 21 C-2.01 14.07 -1.02 7.14 0 0 Z " fill="#EA4E56" transform="translate(756,438)"/>
<path d="M0 0 C1.258125 -0.04125 2.51625 -0.0825 3.8125 -0.125 C4.52019531 -0.14820313 5.22789062 -0.17140625 5.95703125 -0.1953125 C8 0 8 0 11 2 C11.6875 4.625 11.6875 4.625 12 7 C11.01 7.33 10.02 7.66 9 8 C8.67 6.02 8.34 4.04 8 2 C5.36 2 2.72 2 0 2 C0 1.34 0 0.68 0 0 Z " fill="#ED4851" transform="translate(584,431)"/>
<path d="M0 0 C0.99 0.33 1.98 0.66 3 1 C3 1.66 3 2.32 3 3 C2.34 3 1.68 3 1 3 C0.896875 3.763125 0.79375 4.52625 0.6875 5.3125 C-0.04364039 8.17059424 -0.76951913 9.15742885 -3 11 C-4 8 -4 8 -3.22265625 5.95703125 C-2.83980469 5.24933594 -2.45695313 4.54164063 -2.0625 3.8125 C-1.68222656 3.09707031 -1.30195312 2.38164062 -0.91015625 1.64453125 C-0.60980469 1.10183594 -0.30945313 0.55914062 0 0 Z " fill="#E93D46" transform="translate(828,460)"/>
<path d="M0 0 C0.33 0 0.66 0 1 0 C1.38284419 5.23220388 0.41256386 8.44293494 -2 13 C-2.99 13.33 -3.98 13.66 -5 14 C-4.34580901 8.93001981 -2.1453591 4.58009223 0 0 Z " fill="#E73F48" transform="translate(133,389)"/>
<path d="M0 0 C0.33 0.66 0.66 1.32 1 2 C-0.21484375 4.3828125 -0.21484375 4.3828125 -1.9375 7.125 C-2.50339844 8.03507813 -3.06929687 8.94515625 -3.65234375 9.8828125 C-4.09707031 10.58148437 -4.54179688 11.28015625 -5 12 C-6.19298271 8.03483443 -5.73961634 5.81058817 -4 2 C-1.875 0.625 -1.875 0.625 0 0 Z " fill="#E83F48" transform="translate(756,599)"/>
<path d="M0 0 C1.53744431 4.0998515 0.68032016 7.78201498 0 12 C-0.33 12.66 -0.66 13.32 -1 14 C-1.66 14 -2.32 14 -3 14 C-3.33 14.66 -3.66 15.32 -4 16 C-2.98408579 10.53135543 -1.92908943 5.23609987 0 0 Z " fill="#EA454F" transform="translate(417,476)"/>
<path d="M0 0 C1.45606519 4.52092968 0.27032841 7.51648796 -1 12 C-1.66 11.01 -2.32 10.02 -3 9 C-3.66 9.99 -4.32 10.98 -5 12 C-4.67 10.02 -4.34 8.04 -4 6 C-3.34 6 -2.68 6 -2 6 C-2 4.68 -2 3.36 -2 2 C-1.34 2 -0.68 2 0 2 C0 1.34 0 0.68 0 0 Z " fill="#EA3F49" transform="translate(333,458)"/>
<path d="M0 0 C1.25127906 3.54667178 0.72285053 5.72253438 -0.4375 9.25 C-0.72496094 10.14203125 -1.01242188 11.0340625 -1.30859375 11.953125 C-1.53675781 12.62859375 -1.76492187 13.3040625 -2 14 C-3.41196151 11.69765978 -4.02997047 10.40528247 -3.828125 7.67578125 C-3.63734375 6.89589844 -3.4465625 6.11601563 -3.25 5.3125 C-3.06953125 4.52488281 -2.8890625 3.73726562 -2.703125 2.92578125 C-2 1 -2 1 0 0 Z " fill="#EA3F49" transform="translate(237,534)"/>
<path d="M0 0 C4.75809749 0.59476219 8.94710294 2.4906128 13 5 C13.33 5.66 13.66 6.32 14 7 C12.35 6.67 10.7 6.34 9 6 C9 5.34 9 4.68 9 4 C8.01 4.33 7.02 4.66 6 5 C3.63158688 3.42105792 1.93254772 2.0245738 0 0 Z " fill="#EA454E" transform="translate(922,409)"/>
<path d="M0 0 C2 2 2 2 2 6 C1.34 6 0.68 6 0 6 C0 8.31 0 10.62 0 13 C-0.99 13.33 -1.98 13.66 -3 14 C-2.68872484 12.41642541 -2.37592711 10.83315007 -2.0625 9.25 C-1.80146484 7.92742187 -1.80146484 7.92742187 -1.53515625 6.578125 C-1.07631512 4.36764947 -0.56663926 2.18487932 0 0 Z " fill="#EB434D" transform="translate(587,473)"/>
<path d="M0 0 C0.33 0.66 0.66 1.32 1 2 C0.00390625 4.6015625 0.00390625 4.6015625 -1.4375 7.625 C-1.91058594 8.62789063 -2.38367188 9.63078125 -2.87109375 10.6640625 C-3.24363281 11.43492187 -3.61617187 12.20578125 -4 13 C-4.33 13 -4.66 13 -5 13 C-5.34731345 8.13761177 -4.52309739 5.17281491 -2 1 C-1.34 0.67 -0.68 0.34 0 0 Z " fill="#EA3C46" transform="translate(716,458)"/>
<path d="M0 0 C1.25127906 3.54667178 0.72285053 5.72253438 -0.4375 9.25 C-0.72496094 10.14203125 -1.01242188 11.0340625 -1.30859375 11.953125 C-1.53675781 12.62859375 -1.76492187 13.3040625 -2 14 C-3.36398513 11.75700222 -4.05762059 10.50929167 -3.7578125 7.859375 C-3.171875 5.90625 -2.5859375 3.953125 -2 2 C-1.34 2 -0.68 2 0 2 C0 1.34 0 0.68 0 0 Z " fill="#EA4149" transform="translate(171,428)"/>
<path d="M0 0 C1.15625 1.75 1.15625 1.75 0.84375 5.4375 C0.616875 6.530625 0.39 7.62375 0.15625 8.75 C-0.17375 8.75 -0.50375 8.75 -0.84375 8.75 C-1.50375 6.44 -2.16375 4.13 -2.84375 1.75 C-5.81375 1.255 -5.81375 1.255 -8.84375 0.75 C-9.17375 1.41 -9.50375 2.07 -9.84375 2.75 C-9.84375 2.09 -9.84375 1.43 -9.84375 0.75 C-10.50375 0.42 -11.16375 0.09 -11.84375 -0.25 C-10.24259424 -0.4993357 -8.63754841 -0.72378648 -7.03125 -0.9375 C-6.13792969 -1.06511719 -5.24460937 -1.19273437 -4.32421875 -1.32421875 C-1.84375 -1.25 -1.84375 -1.25 0 0 Z " fill="#EA4E57" transform="translate(430.84375,429.25)"/>
<path d="M0 0 C0.66 1.32 1.32 2.64 2 4 C1.34 4 0.68 4 0 4 C0.33 4.99 0.66 5.98 1 7 C-0.3125 8.5 -0.3125 8.5 -2 10 C-2.99 10 -3.98 10 -5 10 C-3.33333333 6.66666667 -1.66666667 3.33333333 0 0 Z " fill="#E9404B" transform="translate(711,595)"/>
<path d="M0 0 C1.23593891 3.70781672 0.5678132 4.67510253 -0.9375 8.1875 C-1.31777344 9.08855469 -1.69804687 9.98960937 -2.08984375 10.91796875 C-2.54037109 11.94857422 -2.54037109 11.94857422 -3 13 C-5.0859375 9.3828125 -5.0859375 9.3828125 -4.3125 5.9375 C-3.11838896 3.26496576 -2.23094277 1.82531681 0 0 Z " fill="#E7434C" transform="translate(135,549)"/>
<path d="M0 0 C0.33 0 0.66 0 1 0 C1.125 6.625 1.125 6.625 0 10 C-0.66 10 -1.32 10 -2 10 C-2.33 11.32 -2.66 12.64 -3 14 C-4.25955231 10.22134307 -3.48087189 8.96588214 -2.0625 5.3125 C-1.68222656 4.31863281 -1.30195312 3.32476562 -0.91015625 2.30078125 C-0.60980469 1.54152344 -0.30945313 0.78226562 0 0 Z " fill="#EA464F" transform="translate(577,508)"/>
<path d="M0 0 C0.33 0 0.66 0 1 0 C2.28571429 8.57142857 2.28571429 8.57142857 1 12 C0.01 12 -0.98 12 -2 12 C-1 3.42857143 -1 3.42857143 0 0 Z " fill="#EA424B" transform="translate(219,428)"/>
<path d="M0 0 C1.18414294 3.55242882 0.69535532 4.69830562 -0.4375 8.1875 C-0.72496094 9.08855469 -1.01242187 9.98960937 -1.30859375 10.91796875 C-1.53675781 11.60503906 -1.76492188 12.29210937 -2 13 C-4 10 -4 10 -3.828125 7.7734375 C-3.63734375 6.98195313 -3.4465625 6.19046875 -3.25 5.375 C-3.06953125 4.57835937 -2.8890625 3.78171875 -2.703125 2.9609375 C-2 1 -2 1 0 0 Z " fill="#E94149" transform="translate(650,430)"/>
<path d="M0 0 C1.125 1.5 1.125 1.5 2 4 C1.57598348 6.7773082 0.81108065 9.29639783 0 12 C-0.99 12 -1.98 12 -3 12 C-2.68950274 10.56206608 -2.3765224 9.1246682 -2.0625 7.6875 C-1.88847656 6.88699219 -1.71445312 6.08648437 -1.53515625 5.26171875 C-1 3 -1 3 0 0 Z " fill="#EA414B" transform="translate(907,476)"/>
<path d="M0 0 C0.33 0 0.66 0 1 0 C1.19294408 4.82360189 0.75747614 8.49646738 -1 13 C-1.66 12.67 -2.32 12.34 -3 12 C-2.68950274 10.56206608 -2.3765224 9.1246682 -2.0625 7.6875 C-1.88847656 6.88699219 -1.71445312 6.08648437 -1.53515625 5.26171875 C-1 3 -1 3 0 0 Z " fill="#E83F48" transform="translate(423,456)"/>
<path d="M0 0 C1 2 1 2 0.22265625 4.6015625 C-0.16019531 5.59929687 -0.54304687 6.59703125 -0.9375 7.625 C-1.50791016 9.12933594 -1.50791016 9.12933594 -2.08984375 10.6640625 C-2.39019531 11.43492187 -2.69054687 12.20578125 -3 13 C-3.33 13 -3.66 13 -4 13 C-4.17673419 8.4932782 -4.13551182 5.03374456 -2 1 C-1.34 0.67 -0.68 0.34 0 0 Z " fill="#E83B45" transform="translate(183,390)"/>
<path d="M0 0 C1.30660357 4.29727397 0.6596762 7.60215865 0 12 C-0.66 12 -1.32 12 -2 12 C-2.33 13.65 -2.66 15.3 -3 17 C-4.29065057 13.1280483 -3.22324098 10.55767399 -2.0625 6.8125 C-1.76956055 5.83120117 -1.76956055 5.83120117 -1.47070312 4.83007812 C-0.98817437 3.21772593 -0.49509795 1.60853711 0 0 Z " fill="#EA4953" transform="translate(236,365)"/>
<path d="M0 0 C1.65 0 3.3 0 5 0 C1.45960866 2.9156164 -2.1626772 5.50127818 -6 8 C-6.66 7.67 -7.32 7.34 -8 7 C-5.63707344 4.47411298 -4.33537489 3.11179163 -1 2 C-0.67 1.34 -0.34 0.68 0 0 Z " fill="#E9424B" transform="translate(217,346)"/>
<path d="M0 0 C1.32 0.66 2.64 1.32 4 2 C-0.455 4.97 -0.455 4.97 -5 8 C-5.66 7.67 -6.32 7.34 -7 7 C-5.25 5 -5.25 5 -3 3 C-1.68 3 -0.36 3 1 3 C0.67 2.01 0.34 1.02 0 0 Z " fill="#E83D46" transform="translate(560,570)"/>
<path d="M0 0 C0.47050781 0.33773437 0.94101562 0.67546875 1.42578125 1.0234375 C2.35970703 1.69246094 2.35970703 1.69246094 3.3125 2.375 C4.23482422 3.03628906 4.23482422 3.03628906 5.17578125 3.7109375 C6.7652392 4.83410907 8.38062171 5.92041447 10 7 C6.70985003 7.22432841 4.57722754 7.30380397 1.625 5.75 C0 4 0 4 0 0 Z " fill="#E93E47" transform="translate(450,547)"/>
<path d="M0 0 C1.23593891 3.70781672 0.5678132 4.67510253 -0.9375 8.1875 C-1.31777344 9.08855469 -1.69804688 9.98960937 -2.08984375 10.91796875 C-2.54037109 11.94857422 -2.54037109 11.94857422 -3 13 C-3.33 13 -3.66 13 -4 13 C-4.28571429 5.57142857 -4.28571429 5.57142857 -2 2 C-1.34 2 -0.68 2 0 2 C0 1.34 0 0.68 0 0 Z " fill="#EB464E" transform="translate(868,482)"/>
<path d="M0 0 C0.99 0.33 1.98 0.66 3 1 C2.01 4.96 1.02 8.92 0 13 C-0.33 13 -0.66 13 -1 13 C-1.07654536 8.48382401 -1.10228696 4.40914783 0 0 Z " fill="#EB3E49" transform="translate(465,463)"/>
<path d="M0 0 C0 3.19610552 -0.54671542 4.41717626 -2 7.1875 C-2.37125 7.90292969 -2.7425 8.61835938 -3.125 9.35546875 C-3.558125 10.16951172 -3.558125 10.16951172 -4 11 C-4.66 10.01 -5.32 9.02 -6 8 C-2.25 1.125 -2.25 1.125 0 0 Z " fill="#EB3943" transform="translate(412,435)"/>
<path d="M0 0 C0.33 1.32 0.66 2.64 1 4 C-1.97 6.475 -1.97 6.475 -5 9 C-5.66 8.67 -6.32 8.34 -7 8 C-5.71937515 6.2925002 -4.38232443 4.62626404 -3 3 C-2.34 3 -1.68 3 -1 3 C-0.67 2.01 -0.34 1.02 0 0 Z " fill="#E83A44" transform="translate(490,380)"/>
<path d="M0 0 C1.25127906 3.54667178 0.72285053 5.72253438 -0.4375 9.25 C-0.72496094 10.14203125 -1.01242187 11.0340625 -1.30859375 11.953125 C-1.53675781 12.62859375 -1.76492188 13.3040625 -2 14 C-3.35015859 9.94952424 -2.62084998 7.2079832 -2 3 C-1.34 3 -0.68 3 0 3 C0 2.01 0 1.02 0 0 Z " fill="#E94850" transform="translate(769,560)"/>
<path d="M0 0 C0.99 0 1.98 0 3 0 C2.34 2.97 1.68 5.94 1 9 C-0.5625 7.25 -0.5625 7.25 -2 5 C-1.75203633 2.83031791 -1.55766393 1.55766393 0 0 Z " fill="#E83C45" transform="translate(770,551)"/>
<path d="M0 0 C1.21724428 3.95604392 1.89679663 8.20640675 0 12 C-0.66 12 -1.32 12 -2 12 C-2.33 12.66 -2.66 13.32 -3 14 C-2.69024532 12.22868439 -2.37709575 10.45796222 -2.0625 8.6875 C-1.88847656 7.70136719 -1.71445313 6.71523438 -1.53515625 5.69921875 C-1 3 -1 3 0 0 Z " fill="#EA464F" transform="translate(187,545)"/>
<path d="M0 0 C1.09898702 3.29696105 0.87124444 4.40494903 0.0625 7.6875 C-0.22947266 8.89986328 -0.22947266 8.89986328 -0.52734375 10.13671875 C-0.68332031 10.75160156 -0.83929688 11.36648438 -1 12 C-3.2903586 8.00949059 -3.01832411 5.49759815 -2 1 C-1.34 0.67 -0.68 0.34 0 0 Z " fill="#EA4149" transform="translate(324,496)"/>
<path d="M0 0 C0.33 0 0.66 0 1 0 C1 2.97 1 5.94 1 9 C0.01 9.33 -0.98 9.66 -2 10 C-2.33 10.66 -2.66 11.32 -3 12 C-2.68950274 10.56206608 -2.3765224 9.1246682 -2.0625 7.6875 C-1.88847656 6.88699219 -1.71445312 6.08648437 -1.53515625 5.26171875 C-1 3 -1 3 0 0 Z " fill="#EA464F" transform="translate(745,484)"/>
<path d="M0 0 C0.33 0.66 0.66 1.32 1 2 C0.22265625 4.1640625 0.22265625 4.1640625 -0.9375 6.625 C-1.31777344 7.44226563 -1.69804687 8.25953125 -2.08984375 9.1015625 C-2.39019531 9.72804688 -2.69054687 10.35453125 -3 11 C-4.078125 9.19921875 -4.078125 9.19921875 -5 7 C-2.80487805 1.40243902 -2.80487805 1.40243902 0 0 Z " fill="#EA3C45" transform="translate(403,452)"/>
<path d="M0 0 C0.625 1.875 0.625 1.875 1 4 C-1 6 -1 6 -4.2578125 6.1953125 C-5.53398438 6.17210937 -6.81015625 6.14890625 -8.125 6.125 C-10.04699219 6.09792969 -10.04699219 6.09792969 -12.0078125 6.0703125 C-13.48894531 6.03550781 -13.48894531 6.03550781 -15 6 C-15 5.67 -15 5.34 -15 5 C-14.16855469 4.93941406 -13.33710937 4.87882812 -12.48046875 4.81640625 C-11.39378906 4.73261719 -10.30710937 4.64882813 -9.1875 4.5625 C-8.10855469 4.48128906 -7.02960938 4.40007812 -5.91796875 4.31640625 C-2.94010095 4.09787539 -2.94010095 4.09787539 0 3 C0 2.01 0 1.02 0 0 Z " fill="#EB696E" transform="translate(115,447)"/>
<path d="M0 0 C1.07310858 3.27185553 0.89263102 5.42947592 0.0625 8.75 C-0.22947266 9.94882812 -0.22947266 9.94882812 -0.52734375 11.171875 C-0.68332031 11.77515625 -0.83929688 12.3784375 -1 13 C-1.33 13 -1.66 13 -2 13 C-3.125 6.375 -3.125 6.375 -2 3 C-1.34 3 -0.68 3 0 3 C0 2.01 0 1.02 0 0 Z " fill="#EA474F" transform="translate(321,508)"/>
<path d="M0 0 C0.33 0 0.66 0 1 0 C1.1799928 5.21979128 0.97094808 9.07262981 -1 14 C-2.70332808 9.2685331 -1.54706991 4.64120974 0 0 Z " fill="#E93E47" transform="translate(479,420)"/>
<path d="M0 0 C0.66 0.33 1.32 0.66 2 1 C2 1.66 2 2.32 2 3 C0.3203125 4.32421875 0.3203125 4.32421875 -1.875 5.6875 C-2.59429688 6.14511719 -3.31359375 6.60273438 -4.0546875 7.07421875 C-5.01761719 7.53248047 -5.01761719 7.53248047 -6 8 C-6.66 7.67 -7.32 7.34 -8 7 C-5.36 4.69 -2.72 2.38 0 0 Z " fill="#E73E48" transform="translate(860,420)"/>
<path d="M0 0 C1.39195915 4.17587745 -0.17676781 6.13474776 -2 10 C-3.125 8.3125 -3.125 8.3125 -4 6 C-3.25 3.3125 -3.25 3.3125 -2 1 C-1.34 0.67 -0.68 0.34 0 0 Z " fill="#E8404A" transform="translate(760,589)"/>
<path d="M0 0 C0.66 0.33 1.32 0.66 2 1 C-0.51830747 4.12270126 -1.7261549 4.94523098 -5.75 5.75 C-7.35875 5.87375 -7.35875 5.87375 -9 6 C-7.73295613 3.46591226 -6.56876843 3.06790028 -4.0625 1.8125 C-3.35222656 1.44769531 -2.64195312 1.08289063 -1.91015625 0.70703125 C-1.27980469 0.47371094 -0.64945312 0.24039063 0 0 Z " fill="#E62531" transform="translate(487,568)"/>
<path d="M0 0 C0.66 0.33 1.32 0.66 2 1 C0.515 6.445 0.515 6.445 -1 12 C-1.33 12 -1.66 12 -2 12 C-2.17835515 7.45194365 -1.99785435 4.1205746 0 0 Z " fill="#E94048" transform="translate(129,562)"/>
<path d="M0 0 C0.33 0 0.66 0 1 0 C1.49230769 6.4 1.49230769 6.4 -1 9.4375 C-1.99 10.2109375 -1.99 10.2109375 -3 11 C-3 8.04725901 -2.56108169 6.50941597 -1.5 3.8125 C-1.2215625 3.09707031 -0.943125 2.38164063 -0.65625 1.64453125 C-0.33140625 0.83048828 -0.33140625 0.83048828 0 0 Z " fill="#E93D47" transform="translate(732,525)"/>
<path d="M0 0 C0.66 0.99 1.32 1.98 2 3 C1.125 6.1875 1.125 6.1875 0 9 C-0.99 9 -1.98 9 -3 9 C-2.01 6.03 -1.02 3.06 0 0 Z " fill="#EA3F48" transform="translate(336,507)"/>
<path d="M0 0 C0.33 0 0.66 0 1 0 C2.125 6.625 2.125 6.625 1 10 C0.34 10 -0.32 10 -1 10 C-1.33 11.32 -1.66 12.64 -2 14 C-1.03644647 4.58997722 -1.03644647 4.58997722 0 0 Z " fill="#EA4B54" transform="translate(492,500)"/>
<path d="M0 0 C0.33 0 0.66 0 1 0 C1.125 6.625 1.125 6.625 0 10 C-0.99 10.33 -1.98 10.66 -3 11 C-2.01 7.37 -1.02 3.74 0 0 Z " fill="#E9434D" transform="translate(103,490)"/>
<path d="M0 0 C2.17766075 4.35532149 2.03039555 5.46625958 1 10 C0.01 10 -0.98 10 -2 10 C-1.34 6.7 -0.68 3.4 0 0 Z " fill="#E9474F" transform="translate(592,456)"/>
<path d="M0 0 C1.60080151 4.00200378 0.29279692 7.04556236 -1 11 C-3 8 -3 8 -2.75 4.375 C-2.5025 3.26125 -2.255 2.1475 -2 1 C-1.34 0.67 -0.68 0.34 0 0 Z " fill="#E93D46" transform="translate(174,417)"/>
<path d="M0 0 C3.68754757 0.49831724 5.60490662 1.10067643 8 4 C7.01 4 6.02 4 5 4 C4.67 4.66 4.34 5.32 4 6 C4 5.01 4 4.02 4 3 C3.34 3 2.68 3 2 3 C1.67 3.66 1.34 4.32 1 5 C0.67 3.35 0.34 1.7 0 0 Z " fill="#E93D48" transform="translate(270,577)"/>
<path d="M0 0 C1.39195915 4.17587745 -0.17676781 6.13474776 -2 10 C-2.66 9.67 -3.32 9.34 -4 9 C-3.34 6.69 -2.68 4.38 -2 2 C-1.34 2 -0.68 2 0 2 C0 1.34 0 0.68 0 0 Z " fill="#EA3F49" transform="translate(627,570)"/>
<path d="M0 0 C0 3 0 3 -2.5 5.6875 C-3.325 6.450625 -4.15 7.21375 -5 8 C-6.32 7.34 -7.64 6.68 -9 6 C-8.071875 5.566875 -7.14375 5.13375 -6.1875 4.6875 C-3.52815927 3.27961373 -1.91894095 2.23876444 0 0 Z " fill="#EA434B" transform="translate(725,538)"/>
<path d="M0 0 C0.66 1.32 1.32 2.64 2 4 C0.35 5.65 -1.3 7.3 -3 9 C-3 5.30581799 -1.71820705 3.22163822 0 0 Z " fill="#EA3B46" transform="translate(569,529)"/>
<path d="M0 0 C0.33 0 0.66 0 1 0 C1 3.3 1 6.6 1 10 C0.34 10 -0.32 10 -1 10 C-1.33 10.66 -1.66 11.32 -2 12 C-1 3.42857143 -1 3.42857143 0 0 Z " fill="#EA464E" transform="translate(405,519)"/>
<path d="M0 0 C0.99 0 1.98 0 3 0 C2.34 3.3 1.68 6.6 1 10 C-1.56687367 6.1496895 -0.83288724 4.41430237 0 0 Z " fill="#EA3E48" transform="translate(449,515)"/>
<path d="M0 0 C0.33 0 0.66 0 1 0 C1.33 3.63 1.66 7.26 2 11 C1.01 11.66 0.02 12.32 -1 13 C-0.67 8.71 -0.34 4.42 0 0 Z " fill="#EB4E56" transform="translate(651,505)"/>
<path d="M0 0 C1.15957207 3.47871621 0.77456651 4.34219645 -0.4375 7.6875 C-0.86869141 8.89986328 -0.86869141 8.89986328 -1.30859375 10.13671875 C-1.53675781 10.75160156 -1.76492188 11.36648438 -2 12 C-2.66 11.01 -3.32 10.02 -4 9 C-3.11728545 5.4691418 -2.02559537 3.03839305 0 0 Z " fill="#EA444E" transform="translate(455,502)"/>
<path d="M0 0 C1.13643966 3.40931897 0.86747764 4.00335456 -0.4375 7.1875 C-0.72496094 7.90292969 -1.01242187 8.61835938 -1.30859375 9.35546875 C-1.53675781 9.89816406 -1.76492188 10.44085938 -2 11 C-3.125 9.3125 -3.125 9.3125 -4 7 C-3.125 4.25 -3.125 4.25 -2 2 C-1.34 2 -0.68 2 0 2 C0 1.34 0 0.68 0 0 Z " fill="#E9414A" transform="translate(543,485)"/>
<path d="M0 0 C0.33 0 0.66 0 1 0 C1.125 6.75 1.125 6.75 0 9 C-0.66 9 -1.32 9 -2 9 C-2.33 9.66 -2.66 10.32 -3 11 C-2.44894091 7.0507432 -1.61064629 3.65079826 0 0 Z " fill="#EA424C" transform="translate(499,477)"/>
<path d="M0 0 C0.95465783 2.16967689 1.14401212 3.56328793 0.3984375 5.82421875 C-0.35870385 7.5684743 -1.17609198 9.28627131 -2 11 C-2.33 11 -2.66 11 -3 11 C-2.25 3.375 -2.25 3.375 0 0 Z " fill="#EB3941" transform="translate(553,459)"/>
<path d="M0 0 C0.625 1.8125 0.625 1.8125 1 4 C-1 7 -1 7 -4 9 C-3.46930939 5.17902761 -2.50298434 2.93828597 0 0 Z " fill="#EB4951" transform="translate(67,457)"/>
<path d="M0 0 C0.99 0.33 1.98 0.66 3 1 C1.35 3.64 -0.3 6.28 -2 9 C-3 5 -3 5 -1.5625 2.25 C-1.046875 1.5075 -0.53125 0.765 0 0 Z " fill="#E93742" transform="translate(884,447)"/>
<path d="M0 0 C0.33 0 0.66 0 1 0 C1.125 6.625 1.125 6.625 0 10 C-0.99 10.33 -1.98 10.66 -3 11 C-2.01 7.37 -1.02 3.74 0 0 Z " fill="#EA3F49" transform="translate(429,438)"/>
<path d="M0 0 C2.17766075 4.35532149 2.03039555 5.46625958 1 10 C0.01 10 -0.98 10 -2 10 C-1.34 6.7 -0.68 3.4 0 0 Z " fill="#EB464E" transform="translate(121,423)"/>
<path d="M0 0 C1.31223496 3.93670488 0.24296256 6.12488144 -1 10 C-3 7 -3 7 -2.75 3.875 C-2.37875 2.451875 -2.37875 2.451875 -2 1 C-1.34 0.67 -0.68 0.34 0 0 Z " fill="#E83C46" transform="translate(653,420)"/>
<path d="M0 0 C1.53166168 4.08443115 0.63081652 7.79455657 0 12 C-0.66 12 -1.32 12 -2 12 C-2.33 12.66 -2.66 13.32 -3 14 C-2.48594831 9.03083364 -1.76615118 4.70973649 0 0 Z " fill="#ED5158" transform="translate(223,414)"/>
<path d="M0 0 C1.31223496 3.93670488 0.24296256 6.12488144 -1 10 C-3 7 -3 7 -2.75 3.875 C-2.37875 2.451875 -2.37875 2.451875 -2 1 C-1.34 0.67 -0.68 0.34 0 0 Z " fill="#EB3C47" transform="translate(277,398)"/>
<path d="M0 0 C0.66 0.33 1.32 0.66 2 1 C0.12050295 4.57104439 -1.17053157 6.54744301 -5 8 C-3.62845496 5.04590299 -2.01136276 2.55991624 0 0 Z " fill="#E93E47" transform="translate(640,621)"/>
<path d="M0 0 C0.66 0 1.32 0 2 0 C0.68775452 3.93673644 -0.91910327 6.22719294 -4 9 C-3.4739075 5.21213403 -2.61896089 2.82847776 0 0 Z " fill="#E73A43" transform="translate(929,538)"/>
<path d="M0 0 C1.0326802 2.78823655 1.04509293 3.8677274 0.0625 6.75 C-0.288125 7.4925 -0.63875 8.235 -1 9 C-1.99 9 -2.98 9 -4 9 C-2.80100302 5.9168649 -1.52299523 2.93720508 0 0 Z " fill="#E93D48" transform="translate(890,521)"/>
<path d="M0 0 C1.41687119 4.25061356 0.19320039 6.71851625 -1 11 C-2.61949011 8.42786866 -3.04408751 7.32330841 -2.625 4.25 C-2.41875 3.5075 -2.2125 2.765 -2 2 C-1.34 2 -0.68 2 0 2 C0 1.34 0 0.68 0 0 Z " fill="#EA474F" transform="translate(859,508)"/>
<path d="M0 0 C1.46726798 3.81489674 0.43336419 6.29011622 -1 10 C-3 7 -3 7 -2.625 4.3125 C-2.41875 3.549375 -2.2125 2.78625 -2 2 C-1.34 2 -0.68 2 0 2 C0 1.34 0 0.68 0 0 Z " fill="#EB3F49" transform="translate(638,468)"/>
<path d="M0 0 C0.99 0 1.98 0 3 0 C2.25 5.75 2.25 5.75 0 8 C-0.98120464 4.94736336 -0.98120464 3.05263664 0 0 Z " fill="#EB434C" transform="translate(762,578)"/>
<path d="M0 0 C-3.96 1.98 -3.96 1.98 -8 4 C-8 3.01 -8 2.02 -8 1 C-4.59449725 -1.06762667 -4.18836538 -1.04709135 0 0 Z " fill="#E83D45" transform="translate(900,571)"/>
<path d="M0 0 C-2.31 1.65 -4.62 3.3 -7 5 C-7.66 4.67 -8.32 4.34 -9 4 C-6.56225426 0.2214941 -6.56225426 0.2214941 -3.9375 -0.8125 C-2 -1 -2 -1 0 0 Z " fill="#EA4B54" transform="translate(341,569)"/>
<path d="M0 0 C1.75098126 2.62647188 3.38731308 5.28775382 5 8 C4.01 9.485 4.01 9.485 3 11 C0 4.5 0 4.5 0 0 Z " fill="#E7454D" transform="translate(651,543)"/>
<path d="M0 0 C0.99 0.33 1.98 0.66 3 1 C1.68 3.31 0.36 5.62 -1 8 C-1.33 8 -1.66 8 -2 8 C-2.20086443 4.28400809 -2.1519437 3.22791555 0 0 Z " fill="#E74049" transform="translate(358,544)"/>
<path d="M0 0 C1.31223496 3.93670488 0.24296256 6.12488144 -1 10 C-2.57035335 7.50590939 -3.0274945 6.29556584 -2.75 3.3125 C-2.5025 2.549375 -2.255 1.78625 -2 1 C-1.34 0.67 -0.68 0.34 0 0 Z " fill="#EA3C46" transform="translate(245,507)"/>
<path d="M0 0 C0.66 0.33 1.32 0.66 2 1 C1.34 2.98 0.68 4.96 0 7 C-0.66 7 -1.32 7 -2 7 C-2.33 7.99 -2.66 8.98 -3 10 C-2.25 3.375 -2.25 3.375 0 0 Z " fill="#E83843" transform="translate(743,494)"/>
<path d="M0 0 C2.08954032 4.17908064 2.16552619 4.80410573 1 9 C0.01 9.33 -0.98 9.66 -2 10 C-1.34 6.7 -0.68 3.4 0 0 Z " fill="#E94950" transform="translate(752,460)"/>
<path d="M0 0 C1.31223496 3.93670488 0.24296256 6.12488144 -1 10 C-2.42944945 7.64561267 -3.08661261 6.51967567 -2.625 3.75 C-2.41875 3.1725 -2.2125 2.595 -2 2 C-1.34 2 -0.68 2 0 2 C0 1.34 0 0.68 0 0 Z " fill="#EA424B" transform="translate(263,446)"/>
<path d="M0 0 C1.31223496 3.93670488 0.24296256 6.12488144 -1 10 C-2.42944945 7.64561267 -3.08661261 6.51967567 -2.625 3.75 C-2.41875 3.1725 -2.2125 2.595 -2 2 C-1.34 2 -0.68 2 0 2 C0 1.34 0 0.68 0 0 Z " fill="#EA3D48" transform="translate(271,419)"/>
<path d="M0 0 C0.66 0.33 1.32 0.66 2 1 C0.68 2.65 -0.64 4.3 -2 6 C-3.32 5.67 -4.64 5.34 -6 5 C-4.02 3.35 -2.04 1.7 0 0 Z " fill="#E8414A" transform="translate(177,337)"/>
<path d="M0 0 C0.66 0.33 1.32 0.66 2 1 C-0.12055614 4.1808342 -1.63050557 5.31525278 -5 7 C-5.66 6.67 -6.32 6.34 -7 6 C-4.69 4.02 -2.38 2.04 0 0 Z " fill="#EB4750" transform="translate(462,331)"/>
<path d="M0 0 C1.46726798 3.81489674 0.43336419 6.29011622 -1 10 C-2.57035335 7.50590939 -3.0274945 6.29556584 -2.75 3.3125 C-2.5025 2.549375 -2.255 1.78625 -2 1 C-1.34 0.67 -0.68 0.34 0 0 Z " fill="#E9434F" transform="translate(618,533)"/>
<path d="M0 0 C0.33 0.66 0.66 1.32 1 2 C0.06421005 4.35981813 -0.93347808 6.69631264 -2 9 C-3.125 7.25 -3.125 7.25 -4 5 C-3.07451225 2.30066074 -2.57626463 1.28813232 0 0 Z " fill="#E93F47" transform="translate(379,504)"/>
<path d="M0 0 C0.91004613 3.07140568 1.33694826 5.79899154 1 9 C0.01 9.66 -0.98 10.32 -2 11 C-1.125 3.375 -1.125 3.375 0 0 Z " fill="#EC535B" transform="translate(495,489)"/>
<path d="M0 0 C1.31223496 3.93670488 0.24296256 6.12488144 -1 10 C-2.57035335 7.50590939 -3.0274945 6.29556584 -2.75 3.3125 C-2.5025 2.549375 -2.255 1.78625 -2 1 C-1.34 0.67 -0.68 0.34 0 0 Z " fill="#EA454E" transform="translate(702,493)"/>
<path d="M0 0 C0.99 0.33 1.98 0.66 3 1 C2.01 2.32 1.02 3.64 0 5 C-1.32 4.67 -2.64 4.34 -4 4 C-2.68 3.34 -1.36 2.68 0 2 C0 1.34 0 0.68 0 0 Z " fill="#E83B44" transform="translate(540,420)"/>
<path d="M0 0 C0.99 1.485 0.99 1.485 2 3 C1.34 3 0.68 3 0 3 C0 2.01 0 1.02 0 0 Z " fill="#EF4752" transform="translate(576,499)"/>
<path d="M0 0 C3 1 3 1 3 1 Z " fill="#E8545E" transform="translate(637,652)"/>
<path d="M0 0 C0.66 0.66 1.32 1.32 2 2 C1.34 2 0.68 2 0 2 C0 1.34 0 0.68 0 0 Z " fill="#EC4E58" transform="translate(409,572)"/>
<path d="" fill="#EC444F" transform="translate(0,0)"/>
<path d="" fill="#EF4552" transform="translate(0,0)"/>
<path d="M0 0 C0.66 0 1.32 0 2 0 C1.67 0.66 1.34 1.32 1 2 C0.67 1.34 0.34 0.68 0 0 Z " fill="#EE4853" transform="translate(808,516)"/>
<path d="" fill="#F0444E" transform="translate(0,0)"/>
<path d="" fill="#EF4952" transform="translate(0,0)"/>
<path d="" fill="#EE4650" transform="translate(0,0)"/>
<path d="" fill="#EE4A54" transform="translate(0,0)"/>
<path d="M0 0 C0.99 0.495 0.99 0.495 2 1 C1.01 1.495 1.01 1.495 0 2 C0 1.34 0 0.68 0 0 Z " fill="#ED4A54" transform="translate(848,426)"/>
<path d="" fill="#EC4A57" transform="translate(0,0)"/>
<path d="M0 0 C0.66 0 1.32 0 2 0 C1.67 0.66 1.34 1.32 1 2 C0.67 1.34 0.34 0.68 0 0 Z " fill="#E94E59" transform="translate(168,340)"/>
<path d="M0 0 C2 1 2 1 2 1 Z " fill="#EC4753" transform="translate(664,616)"/>
<path d="" fill="#ED4752" transform="translate(0,0)"/>
<path d="M0 0 C2 1 2 1 2 1 Z " fill="#EC4F58" transform="translate(276,583)"/>
<path d="M0 0 C2 1 2 1 2 1 Z " fill="#ED4D58" transform="translate(579,582)"/>
<path d="M0 0 C2 1 2 1 2 1 Z " fill="#EA515A" transform="translate(120,582)"/>
<path d="" fill="#EC4D56" transform="translate(0,0)"/>
<path d="M0 0 C2 1 2 1 2 1 Z " fill="#EC4854" transform="translate(664,575)"/>
<path d="" fill="#EB4852" transform="translate(0,0)"/>
<path d="M0 0 C2 1 2 1 2 1 Z " fill="#E74652" transform="translate(462,552)"/>
<path d="" fill="#EF4B55" transform="translate(0,0)"/>
<path d="" fill="#EB4853" transform="translate(0,0)"/>
<path d="" fill="#EF4854" transform="translate(0,0)"/>
<path d="" fill="#EB4954" transform="translate(0,0)"/>
<path d="" fill="#EA4550" transform="translate(0,0)"/>
<path d="" fill="#EB4851" transform="translate(0,0)"/>
<path d="" fill="#F04A56" transform="translate(0,0)"/>
<path d="M0 0 C2 1 2 1 2 1 Z " fill="#EC4650" transform="translate(880,533)"/>
<path d="" fill="#F04953" transform="translate(0,0)"/>
<path d="M0 0 C2 1 2 1 2 1 Z " fill="#ED4550" transform="translate(881,530)"/>
<path d="M0 0 C2 1 2 1 2 1 Z " fill="#EE4451" transform="translate(570,521)"/>
<path d="" fill="#EC4853" transform="translate(0,0)"/>
<path d="" fill="#E84B57" transform="translate(0,0)"/>
<path d="" fill="#EF4952" transform="translate(0,0)"/>
<path d="" fill="#ED434F" transform="translate(0,0)"/>
<path d="" fill="#EF4854" transform="translate(0,0)"/>
<path d="" fill="#EA434F" transform="translate(0,0)"/>
<path d="M0 0 C2 1 2 1 2 1 Z " fill="#EF4451" transform="translate(540,502)"/>
<path d="" fill="#ED454E" transform="translate(0,0)"/>
<path d="M0 0 C2 1 2 1 2 1 Z " fill="#EE454E" transform="translate(325,500)"/>
<path d="" fill="#EE4750" transform="translate(0,0)"/>
<path d="" fill="#EE4852" transform="translate(0,0)"/>
<path d="" fill="#EB3F4D" transform="translate(0,0)"/>
<path d="M0 0 C2 1 2 1 2 1 Z " fill="#EE414D" transform="translate(254,484)"/>
<path d="" fill="#ED4651" transform="translate(0,0)"/>
<path d="M0 0 C2 1 2 1 2 1 Z " fill="#ED4851" transform="translate(904,476)"/>
<path d="" fill="#EC4452" transform="translate(0,0)"/>
<path d="" fill="#F04954" transform="translate(0,0)"/>
<path d="" fill="#EF4851" transform="translate(0,0)"/>
<path d="" fill="#EF4650" transform="translate(0,0)"/>
<path d="" fill="#EC434F" transform="translate(0,0)"/>
<path d="" fill="#EC4951" transform="translate(0,0)"/>
<path d="" fill="#EC464E" transform="translate(0,0)"/>
<path d="" fill="#EC4751" transform="translate(0,0)"/>
<path d="" fill="#EE4652" transform="translate(0,0)"/>
<path d="M0 0 C2 1 2 1 2 1 Z " fill="#EA4F59" transform="translate(86,450)"/>
<path d="M0 0 C2 1 2 1 2 1 Z " fill="#ED4751" transform="translate(112,448)"/>
<path d="" fill="#F14952" transform="translate(0,0)"/>
<path d="" fill="#F04A53" transform="translate(0,0)"/>
<path d="" fill="#F04652" transform="translate(0,0)"/>
<path d="" fill="#EE4450" transform="translate(0,0)"/>
<path d="" fill="#EF444E" transform="translate(0,0)"/>
<path d="" fill="#EC4953" transform="translate(0,0)"/>
<path d="M0 0 C2 1 2 1 2 1 Z " fill="#E94E58" transform="translate(940,417)"/>
<path d="M0 0 C2 1 2 1 2 1 Z " fill="#ED4C54" transform="translate(697,416)"/>
<path d="M0 0 C2 1 2 1 2 1 Z " fill="#ED525C" transform="translate(928,409)"/>
<path d="" fill="#E94550" transform="translate(0,0)"/>
<path d="M0 0 C2 1 2 1 2 1 Z " fill="#E54D55" transform="translate(464,328)"/>
<path d="M0 0 C2 1 2 1 2 1 Z " fill="#E7545C" transform="translate(254,312)"/>
<path d="" fill="#82807E" transform="translate(0,0)"/>
<path d="" fill="#7B7D7C" transform="translate(0,0)"/>
<path d="" fill="#838281" transform="translate(0,0)"/>
<path d="" fill="#838483" transform="translate(0,0)"/>
<path d="" fill="#7E807D" transform="translate(0,0)"/>
<path d="" fill="#8A8787" transform="translate(0,0)"/>
<path d="" fill="#8D8686" transform="translate(0,0)"/>
<path d="" fill="#938786" transform="translate(0,0)"/>
<path d="" fill="#878785" transform="translate(0,0)"/>
<path d="" fill="#948987" transform="translate(0,0)"/>
<path d="" fill="#8A8584" transform="translate(0,0)"/>
<path d="" fill="#8E8D8C" transform="translate(0,0)"/>
<path d="" fill="#AB8D89" transform="translate(0,0)"/>
<path d="" fill="#B08886" transform="translate(0,0)"/>
<path d="" fill="#EA535D" transform="translate(0,0)"/>
<path d="" fill="#EA525B" transform="translate(0,0)"/>
<path d="" fill="#E4535D" transform="translate(0,0)"/>
<path d="" fill="#D27375" transform="translate(0,0)"/>
<path d="" fill="#E9545C" transform="translate(0,0)"/>
<path d="" fill="#EA555E" transform="translate(0,0)"/>
<path d="" fill="#EB5358" transform="translate(0,0)"/>
<path d="" fill="#EC4F59" transform="translate(0,0)"/>
<path d="" fill="#EE4955" transform="translate(0,0)"/>
<path d="" fill="#E64D55" transform="translate(0,0)"/>
<path d="" fill="#EA5059" transform="translate(0,0)"/>
<path d="" fill="#E5515E" transform="translate(0,0)"/>
<path d="" fill="#ED4851" transform="translate(0,0)"/>
<path d="" fill="#EC4651" transform="translate(0,0)"/>
<path d="" fill="#EB4651" transform="translate(0,0)"/>
<path d="" fill="#EF4653" transform="translate(0,0)"/>
<path d="" fill="#EC4653" transform="translate(0,0)"/>
<path d="" fill="#EA515A" transform="translate(0,0)"/>
<path d="" fill="#ED4C57" transform="translate(0,0)"/>
<path d="" fill="#EC5057" transform="translate(0,0)"/>
<path d="" fill="#EB4F5D" transform="translate(0,0)"/>
<path d="" fill="#EA4D56" transform="translate(0,0)"/>
<path d="" fill="#E94B55" transform="translate(0,0)"/>
<path d="" fill="#E94B56" transform="translate(0,0)"/>
<path d="" fill="#ED4F59" transform="translate(0,0)"/>
<path d="" fill="#EA4D58" transform="translate(0,0)"/>
<path d="" fill="#E55C64" transform="translate(0,0)"/>
<path d="" fill="#F0515B" transform="translate(0,0)"/>
<path d="" fill="#E94D57" transform="translate(0,0)"/>
<path d="" fill="#ED4C57" transform="translate(0,0)"/>
<path d="" fill="#EC4851" transform="translate(0,0)"/>
<path d="" fill="#EB4A55" transform="translate(0,0)"/>
<path d="" fill="#EC4F5A" transform="translate(0,0)"/>
<path d="" fill="#EA555C" transform="translate(0,0)"/>
<path d="" fill="#E26066" transform="translate(0,0)"/>
<path d="" fill="#EA545A" transform="translate(0,0)"/>
<path d="" fill="#EA545C" transform="translate(0,0)"/>
<path d="" fill="#ED4D57" transform="translate(0,0)"/>
<path d="" fill="#EF505A" transform="translate(0,0)"/>
<path d="" fill="#EB4F58" transform="translate(0,0)"/>
<path d="" fill="#EB515A" transform="translate(0,0)"/>
<path d="" fill="#F14553" transform="translate(0,0)"/>
<path d="" fill="#EB4F58" transform="translate(0,0)"/>
<path d="" fill="#EB4B52" transform="translate(0,0)"/>
<path d="" fill="#EB4851" transform="translate(0,0)"/>
<path d="" fill="#ED4953" transform="translate(0,0)"/>
<path d="" fill="#E94D56" transform="translate(0,0)"/>
<path d="" fill="#E84F57" transform="translate(0,0)"/>
<path d="" fill="#EA515B" transform="translate(0,0)"/>
<path d="" fill="#EC515B" transform="translate(0,0)"/>
<path d="" fill="#EF4754" transform="translate(0,0)"/>
<path d="" fill="#ED4C53" transform="translate(0,0)"/>
<path d="" fill="#EB4A54" transform="translate(0,0)"/>
<path d="" fill="#EC4850" transform="translate(0,0)"/>
<path d="" fill="#EC4B55" transform="translate(0,0)"/>
<path d="" fill="#EB4E57" transform="translate(0,0)"/>
<path d="" fill="#EB4C57" transform="translate(0,0)"/>
<path d="" fill="#EB4C57" transform="translate(0,0)"/>
<path d="" fill="#EB4A54" transform="translate(0,0)"/>
<path d="" fill="#ED4B56" transform="translate(0,0)"/>
<path d="" fill="#EB4E57" transform="translate(0,0)"/>
<path d="" fill="#ED4753" transform="translate(0,0)"/>
<path d="" fill="#EC4651" transform="translate(0,0)"/>
<path d="" fill="#E9515A" transform="translate(0,0)"/>
<path d="" fill="#EE4650" transform="translate(0,0)"/>
<path d="" fill="#ED4E58" transform="translate(0,0)"/>
<path d="" fill="#EF4C55" transform="translate(0,0)"/>
<path d="" fill="#EB4951" transform="translate(0,0)"/>
<path d="" fill="#EB4A54" transform="translate(0,0)"/>
<path d="" fill="#EC4857" transform="translate(0,0)"/>
<path d="" fill="#ED4A52" transform="translate(0,0)"/>
<path d="" fill="#EB4A57" transform="translate(0,0)"/>
<path d="" fill="#EC4A55" transform="translate(0,0)"/>
<path d="" fill="#EB4C57" transform="translate(0,0)"/>
<path d="" fill="#ED4A54" transform="translate(0,0)"/>
<path d="" fill="#EC4851" transform="translate(0,0)"/>
<path d="" fill="#EE424D" transform="translate(0,0)"/>
<path d="" fill="#EB525B" transform="translate(0,0)"/>
<path d="" fill="#EA4650" transform="translate(0,0)"/>
<path d="" fill="#F04853" transform="translate(0,0)"/>
<path d="" fill="#ED4653" transform="translate(0,0)"/>
<path d="" fill="#EB4B51" transform="translate(0,0)"/>
<path d="" fill="#EB4853" transform="translate(0,0)"/>
<path d="" fill="#EF4C55" transform="translate(0,0)"/>
<path d="" fill="#EE4B56" transform="translate(0,0)"/>
<path d="" fill="#F04952" transform="translate(0,0)"/>
<path d="" fill="#EF4850" transform="translate(0,0)"/>
<path d="" fill="#EF4954" transform="translate(0,0)"/>
<path d="" fill="#EC4151" transform="translate(0,0)"/>
<path d="" fill="#EF4753" transform="translate(0,0)"/>
<path d="" fill="#EF4851" transform="translate(0,0)"/>
<path d="" fill="#F04954" transform="translate(0,0)"/>
<path d="" fill="#EF4A53" transform="translate(0,0)"/>
<path d="" fill="#EC4852" transform="translate(0,0)"/>
<path d="" fill="#EC4852" transform="translate(0,0)"/>
<path d="" fill="#ED4850" transform="translate(0,0)"/>
<path d="" fill="#ED4551" transform="translate(0,0)"/>
<path d="" fill="#EF4E56" transform="translate(0,0)"/>
<path d="" fill="#EB4854" transform="translate(0,0)"/>
<path d="" fill="#ED4451" transform="translate(0,0)"/>
<path d="" fill="#EA4A55" transform="translate(0,0)"/>
<path d="" fill="#EC505D" transform="translate(0,0)"/>
<path d="" fill="#EE454F" transform="translate(0,0)"/>
<path d="" fill="#F04551" transform="translate(0,0)"/>
<path d="" fill="#EE505B" transform="translate(0,0)"/>
<path d="" fill="#EF4754" transform="translate(0,0)"/>
<path d="" fill="#EF505A" transform="translate(0,0)"/>
<path d="" fill="#EF4952" transform="translate(0,0)"/>
<path d="" fill="#EC444E" transform="translate(0,0)"/>
<path d="" fill="#ED4854" transform="translate(0,0)"/>
<path d="" fill="#F04755" transform="translate(0,0)"/>
<path d="" fill="#EF4450" transform="translate(0,0)"/>
<path d="" fill="#F04854" transform="translate(0,0)"/>
<path d="" fill="#EB4852" transform="translate(0,0)"/>
<path d="" fill="#F1474F" transform="translate(0,0)"/>
<path d="" fill="#EC4652" transform="translate(0,0)"/>
<path d="" fill="#F0464F" transform="translate(0,0)"/>
<path d="" fill="#EA454C" transform="translate(0,0)"/>
<path d="" fill="#EE4551" transform="translate(0,0)"/>
<path d="" fill="#EE4653" transform="translate(0,0)"/>
<path d="" fill="#E94854" transform="translate(0,0)"/>
<path d="" fill="#ED4451" transform="translate(0,0)"/>
<path d="" fill="#F04650" transform="translate(0,0)"/>
<path d="" fill="#ED4755" transform="translate(0,0)"/>
<path d="" fill="#EC4A54" transform="translate(0,0)"/>
<path d="" fill="#EB4C53" transform="translate(0,0)"/>
<path d="" fill="#F24553" transform="translate(0,0)"/>
<path d="" fill="#ED4652" transform="translate(0,0)"/>
<path d="" fill="#EB4752" transform="translate(0,0)"/>
<path d="" fill="#E94450" transform="translate(0,0)"/>
<path d="" fill="#E74553" transform="translate(0,0)"/>
<path d="" fill="#F04751" transform="translate(0,0)"/>
<path d="" fill="#EC4751" transform="translate(0,0)"/>
<path d="" fill="#ED4450" transform="translate(0,0)"/>
<path d="" fill="#F04853" transform="translate(0,0)"/>
<path d="" fill="#F04553" transform="translate(0,0)"/>
<path d="" fill="#EC424F" transform="translate(0,0)"/>
<path d="" fill="#EC4450" transform="translate(0,0)"/>
<path d="" fill="#EF4852" transform="translate(0,0)"/>
<path d="" fill="#EE4F57" transform="translate(0,0)"/>
<path d="" fill="#ED4550" transform="translate(0,0)"/>
<path d="" fill="#ED3E4C" transform="translate(0,0)"/>
<path d="" fill="#ED4550" transform="translate(0,0)"/>
<path d="" fill="#EE464E" transform="translate(0,0)"/>
<path d="" fill="#E84A59" transform="translate(0,0)"/>
<path d="" fill="#F04653" transform="translate(0,0)"/>
<path d="" fill="#E8464F" transform="translate(0,0)"/>
<path d="" fill="#F0464E" transform="translate(0,0)"/>
<path d="" fill="#EC4755" transform="translate(0,0)"/>
<path d="" fill="#F04855" transform="translate(0,0)"/>
<path d="" fill="#EF4752" transform="translate(0,0)"/>
<path d="" fill="#ED4554" transform="translate(0,0)"/>
<path d="" fill="#F2464E" transform="translate(0,0)"/>
<path d="" fill="#EF4450" transform="translate(0,0)"/>
<path d="" fill="#F0444E" transform="translate(0,0)"/>
<path d="" fill="#ED484F" transform="translate(0,0)"/>
<path d="" fill="#EE4750" transform="translate(0,0)"/>
<path d="" fill="#EE4552" transform="translate(0,0)"/>
<path d="" fill="#F14450" transform="translate(0,0)"/>
<path d="" fill="#EE4452" transform="translate(0,0)"/>
<path d="" fill="#EE434F" transform="translate(0,0)"/>
<path d="" fill="#EF434D" transform="translate(0,0)"/>
<path d="" fill="#ED4555" transform="translate(0,0)"/>
<path d="" fill="#ED4B56" transform="translate(0,0)"/>
<path d="" fill="#ED4954" transform="translate(0,0)"/>
<path d="" fill="#EE4754" transform="translate(0,0)"/>
<path d="" fill="#EB4551" transform="translate(0,0)"/>
<path d="" fill="#ED4751" transform="translate(0,0)"/>
<path d="" fill="#EC4651" transform="translate(0,0)"/>
<path d="" fill="#EE4450" transform="translate(0,0)"/>
<path d="" fill="#EE4551" transform="translate(0,0)"/>
<path d="" fill="#EE444F" transform="translate(0,0)"/>
<path d="" fill="#F1454E" transform="translate(0,0)"/>
<path d="" fill="#EF4854" transform="translate(0,0)"/>
<path d="" fill="#EF4650" transform="translate(0,0)"/>
<path d="" fill="#EF4553" transform="translate(0,0)"/>
<path d="" fill="#ED4450" transform="translate(0,0)"/>
<path d="" fill="#F24651" transform="translate(0,0)"/>
<path d="" fill="#F14750" transform="translate(0,0)"/>
<path d="" fill="#F24650" transform="translate(0,0)"/>
<path d="" fill="#ED4551" transform="translate(0,0)"/>
<path d="" fill="#EF4851" transform="translate(0,0)"/>
<path d="" fill="#F04350" transform="translate(0,0)"/>
<path d="" fill="#ED4953" transform="translate(0,0)"/>
<path d="" fill="#EA4451" transform="translate(0,0)"/>
<path d="" fill="#EC4651" transform="translate(0,0)"/>
<path d="" fill="#E94450" transform="translate(0,0)"/>
<path d="" fill="#F03F4F" transform="translate(0,0)"/>
<path d="" fill="#EE454E" transform="translate(0,0)"/>
<path d="" fill="#F14751" transform="translate(0,0)"/>
<path d="" fill="#EF4653" transform="translate(0,0)"/>
<path d="" fill="#EC4551" transform="translate(0,0)"/>
<path d="" fill="#EB4451" transform="translate(0,0)"/>
<path d="" fill="#ED4551" transform="translate(0,0)"/>
<path d="" fill="#ED4A54" transform="translate(0,0)"/>
<path d="" fill="#ED3F4C" transform="translate(0,0)"/>
<path d="" fill="#ED464F" transform="translate(0,0)"/>
<path d="" fill="#EC4650" transform="translate(0,0)"/>
<path d="" fill="#ED4A55" transform="translate(0,0)"/>
<path d="" fill="#ED4752" transform="translate(0,0)"/>
<path d="" fill="#EE4553" transform="translate(0,0)"/>
<path d="" fill="#ED4B54" transform="translate(0,0)"/>
<path d="" fill="#EC464F" transform="translate(0,0)"/>
<path d="" fill="#ED4350" transform="translate(0,0)"/>
<path d="" fill="#ED4A54" transform="translate(0,0)"/>
<path d="" fill="#EA4954" transform="translate(0,0)"/>
<path d="" fill="#ED4851" transform="translate(0,0)"/>
<path d="" fill="#F04853" transform="translate(0,0)"/>
<path d="" fill="#EC4B58" transform="translate(0,0)"/>
<path d="" fill="#E73F4B" transform="translate(0,0)"/>
<path d="" fill="#ED4853" transform="translate(0,0)"/>
<path d="" fill="#EE454F" transform="translate(0,0)"/>
<path d="" fill="#EF4751" transform="translate(0,0)"/>
<path d="" fill="#F04750" transform="translate(0,0)"/>
<path d="" fill="#F04650" transform="translate(0,0)"/>
<path d="" fill="#F1454F" transform="translate(0,0)"/>
<path d="" fill="#F24B51" transform="translate(0,0)"/>
<path d="" fill="#F0474F" transform="translate(0,0)"/>
<path d="" fill="#F44854" transform="translate(0,0)"/>
<path d="" fill="#EF4351" transform="translate(0,0)"/>
<path d="" fill="#EB444D" transform="translate(0,0)"/>
<path d="" fill="#EF4650" transform="translate(0,0)"/>
<path d="" fill="#F04652" transform="translate(0,0)"/>
<path d="" fill="#EC4C57" transform="translate(0,0)"/>
<path d="" fill="#EF4551" transform="translate(0,0)"/>
<path d="" fill="#EF4652" transform="translate(0,0)"/>
<path d="" fill="#F04651" transform="translate(0,0)"/>
<path d="" fill="#EE444C" transform="translate(0,0)"/>
<path d="" fill="#ED4350" transform="translate(0,0)"/>
<path d="" fill="#EF4852" transform="translate(0,0)"/>
<path d="" fill="#ED434F" transform="translate(0,0)"/>
<path d="" fill="#EB4651" transform="translate(0,0)"/>
<path d="" fill="#F14651" transform="translate(0,0)"/>
<path d="" fill="#EE4851" transform="translate(0,0)"/>
<path d="" fill="#EC434F" transform="translate(0,0)"/>
<path d="" fill="#EA4550" transform="translate(0,0)"/>
<path d="" fill="#ED4A53" transform="translate(0,0)"/>
<path d="" fill="#F04553" transform="translate(0,0)"/>
<path d="" fill="#EB4A52" transform="translate(0,0)"/>
<path d="" fill="#E6464F" transform="translate(0,0)"/>
<path d="" fill="#F04350" transform="translate(0,0)"/>
<path d="" fill="#EB414D" transform="translate(0,0)"/>
<path d="" fill="#EF4752" transform="translate(0,0)"/>
<path d="" fill="#EC414E" transform="translate(0,0)"/>
<path d="" fill="#EF4450" transform="translate(0,0)"/>
<path d="" fill="#EF444F" transform="translate(0,0)"/>
<path d="" fill="#EE4754" transform="translate(0,0)"/>
<path d="" fill="#EC424F" transform="translate(0,0)"/>
<path d="" fill="#F04550" transform="translate(0,0)"/>
<path d="" fill="#EF464F" transform="translate(0,0)"/>
<path d="" fill="#EB4650" transform="translate(0,0)"/>
<path d="" fill="#ED4A50" transform="translate(0,0)"/>
<path d="" fill="#EE4351" transform="translate(0,0)"/>
<path d="" fill="#EB4652" transform="translate(0,0)"/>
<path d="" fill="#ED454F" transform="translate(0,0)"/>
<path d="" fill="#EF4350" transform="translate(0,0)"/>
<path d="" fill="#EE424D" transform="translate(0,0)"/>
<path d="" fill="#EE474F" transform="translate(0,0)"/>
<path d="" fill="#EA434F" transform="translate(0,0)"/>
<path d="" fill="#F04652" transform="translate(0,0)"/>
<path d="" fill="#E9565F" transform="translate(0,0)"/>
<path d="" fill="#E84652" transform="translate(0,0)"/>
<path d="" fill="#ED4451" transform="translate(0,0)"/>
<path d="" fill="#EB565F" transform="translate(0,0)"/>
<path d="" fill="#EE4552" transform="translate(0,0)"/>
<path d="" fill="#EF4753" transform="translate(0,0)"/>
<path d="" fill="#F04757" transform="translate(0,0)"/>
<path d="" fill="#EB4651" transform="translate(0,0)"/>
<path d="" fill="#ED3F50" transform="translate(0,0)"/>
<path d="" fill="#F04652" transform="translate(0,0)"/>
<path d="" fill="#EE4753" transform="translate(0,0)"/>
<path d="" fill="#EE424D" transform="translate(0,0)"/>
<path d="" fill="#F14751" transform="translate(0,0)"/>
<path d="" fill="#F04653" transform="translate(0,0)"/>
<path d="" fill="#EE4850" transform="translate(0,0)"/>
<path d="" fill="#F2454E" transform="translate(0,0)"/>
<path d="" fill="#EE4151" transform="translate(0,0)"/>
<path d="" fill="#EE4751" transform="translate(0,0)"/>
<path d="" fill="#EF444D" transform="translate(0,0)"/>
<path d="" fill="#EC4652" transform="translate(0,0)"/>
<path d="" fill="#EC5960" transform="translate(0,0)"/>
<path d="" fill="#EF4653" transform="translate(0,0)"/>
<path d="" fill="#F24957" transform="translate(0,0)"/>
<path d="" fill="#F0434C" transform="translate(0,0)"/>
<path d="" fill="#F14752" transform="translate(0,0)"/>
<path d="" fill="#EF4751" transform="translate(0,0)"/>
<path d="" fill="#E9454F" transform="translate(0,0)"/>
<path d="" fill="#ED4852" transform="translate(0,0)"/>
<path d="" fill="#EB4750" transform="translate(0,0)"/>
<path d="" fill="#EF4754" transform="translate(0,0)"/>
<path d="" fill="#EC454F" transform="translate(0,0)"/>
<path d="" fill="#EF444F" transform="translate(0,0)"/>
<path d="" fill="#E9454E" transform="translate(0,0)"/>
<path d="" fill="#EE4755" transform="translate(0,0)"/>
<path d="" fill="#E74651" transform="translate(0,0)"/>
<path d="" fill="#EA434E" transform="translate(0,0)"/>
<path d="" fill="#EC4854" transform="translate(0,0)"/>
<path d="" fill="#EE4954" transform="translate(0,0)"/>
<path d="" fill="#ED4955" transform="translate(0,0)"/>
<path d="" fill="#EF4651" transform="translate(0,0)"/>
<path d="" fill="#ED434E" transform="translate(0,0)"/>
<path d="" fill="#F04751" transform="translate(0,0)"/>
<path d="" fill="#EB4954" transform="translate(0,0)"/>
<path d="" fill="#EC5058" transform="translate(0,0)"/>
<path d="" fill="#ED4752" transform="translate(0,0)"/>
<path d="" fill="#EB4952" transform="translate(0,0)"/>
<path d="" fill="#EF4550" transform="translate(0,0)"/>
<path d="" fill="#EF4651" transform="translate(0,0)"/>
<path d="" fill="#ED4754" transform="translate(0,0)"/>
<path d="" fill="#EB4553" transform="translate(0,0)"/>
<path d="" fill="#F1464E" transform="translate(0,0)"/>
<path d="" fill="#EF4F56" transform="translate(0,0)"/>
<path d="" fill="#EC4755" transform="translate(0,0)"/>
<path d="" fill="#EF4C54" transform="translate(0,0)"/>
<path d="" fill="#EB4852" transform="translate(0,0)"/>
<path d="" fill="#EB4A55" transform="translate(0,0)"/>
<path d="" fill="#EB4D52" transform="translate(0,0)"/>
<path d="" fill="#EF4450" transform="translate(0,0)"/>
<path d="" fill="#EC4652" transform="translate(0,0)"/>
<path d="" fill="#EC4C54" transform="translate(0,0)"/>
<path d="" fill="#EE4851" transform="translate(0,0)"/>
<path d="" fill="#EC4951" transform="translate(0,0)"/>
<path d="" fill="#EF4952" transform="translate(0,0)"/>
<path d="" fill="#EE4753" transform="translate(0,0)"/>
<path d="" fill="#F24553" transform="translate(0,0)"/>
<path d="" fill="#ED4552" transform="translate(0,0)"/>
<path d="" fill="#EE4B51" transform="translate(0,0)"/>
<path d="" fill="#EC424F" transform="translate(0,0)"/>
<path d="" fill="#F14952" transform="translate(0,0)"/>
<path d="" fill="#ED454F" transform="translate(0,0)"/>
<path d="" fill="#ED414F" transform="translate(0,0)"/>
<path d="" fill="#F14954" transform="translate(0,0)"/>
<path d="" fill="#EA444F" transform="translate(0,0)"/>
<path d="" fill="#F0454E" transform="translate(0,0)"/>
<path d="" fill="#EC4B57" transform="translate(0,0)"/>
<path d="" fill="#ED4E55" transform="translate(0,0)"/>
<path d="" fill="#F04650" transform="translate(0,0)"/>
<path d="" fill="#F24D53" transform="translate(0,0)"/>
<path d="" fill="#EF4B54" transform="translate(0,0)"/>
<path d="" fill="#EC4D56" transform="translate(0,0)"/>
<path d="" fill="#EE4250" transform="translate(0,0)"/>
<path d="" fill="#EF4852" transform="translate(0,0)"/>
<path d="" fill="#EF4B55" transform="translate(0,0)"/>
<path d="" fill="#F14852" transform="translate(0,0)"/>
<path d="" fill="#EC4E55" transform="translate(0,0)"/>
<path d="" fill="#E64B53" transform="translate(0,0)"/>
<path d="" fill="#EC4E55" transform="translate(0,0)"/>
<path d="" fill="#F04753" transform="translate(0,0)"/>
<path d="" fill="#EE4E59" transform="translate(0,0)"/>
<path d="" fill="#F04955" transform="translate(0,0)"/>
<path d="" fill="#EA4750" transform="translate(0,0)"/>
<path d="" fill="#E93F49" transform="translate(0,0)"/>
<path d="" fill="#ED4652" transform="translate(0,0)"/>
<path d="" fill="#EE4654" transform="translate(0,0)"/>
<path d="" fill="#EF4350" transform="translate(0,0)"/>
<path d="" fill="#ED4953" transform="translate(0,0)"/>
<path d="" fill="#EA505B" transform="translate(0,0)"/>
<path d="" fill="#ED4A56" transform="translate(0,0)"/>
<path d="" fill="#EC4D53" transform="translate(0,0)"/>
<path d="" fill="#ED4C53" transform="translate(0,0)"/>
<path d="" fill="#EC4F58" transform="translate(0,0)"/>
<path d="" fill="#E9434D" transform="translate(0,0)"/>
<path d="" fill="#EC4B57" transform="translate(0,0)"/>
<path d="" fill="#E94B55" transform="translate(0,0)"/>
<path d="" fill="#EA4B56" transform="translate(0,0)"/>
<path d="" fill="#EB4852" transform="translate(0,0)"/>
<path d="" fill="#EA4E57" transform="translate(0,0)"/>
<path d="" fill="#EE4E56" transform="translate(0,0)"/>
<path d="" fill="#EE454E" transform="translate(0,0)"/>
<path d="" fill="#EC4854" transform="translate(0,0)"/>
<path d="" fill="#EA4C56" transform="translate(0,0)"/>
<path d="" fill="#EA4C56" transform="translate(0,0)"/>
<path d="" fill="#E94D56" transform="translate(0,0)"/>
<path d="" fill="#E94E59" transform="translate(0,0)"/>
<path d="" fill="#E84E58" transform="translate(0,0)"/>
<path d="" fill="#E84B55" transform="translate(0,0)"/>
<path d="" fill="#EF4954" transform="translate(0,0)"/>
<path d="" fill="#ED4A54" transform="translate(0,0)"/>
<path d="" fill="#F04352" transform="translate(0,0)"/>
<path d="" fill="#ED4D59" transform="translate(0,0)"/>
<path d="" fill="#EE5058" transform="translate(0,0)"/>
<path d="" fill="#EB5257" transform="translate(0,0)"/>
<path d="" fill="#EE4352" transform="translate(0,0)"/>
<path d="" fill="#EB505A" transform="translate(0,0)"/>
<path d="" fill="#E94C54" transform="translate(0,0)"/>
<path d="" fill="#F24450" transform="translate(0,0)"/>
<path d="" fill="#E64C57" transform="translate(0,0)"/>
<path d="" fill="#EC4D58" transform="translate(0,0)"/>
<path d="" fill="#EB4E58" transform="translate(0,0)"/>
<path d="" fill="#ED4959" transform="translate(0,0)"/>
<path d="" fill="#EF4954" transform="translate(0,0)"/>
<path d="" fill="#EF4550" transform="translate(0,0)"/>
<path d="" fill="#EF4750" transform="translate(0,0)"/>
<path d="" fill="#EC444F" transform="translate(0,0)"/>
<path d="" fill="#EA5359" transform="translate(0,0)"/>
<path d="" fill="#EA555C" transform="translate(0,0)"/>
<path d="" fill="#ED4551" transform="translate(0,0)"/>
<path d="" fill="#E94651" transform="translate(0,0)"/>
<path d="" fill="#E74F56" transform="translate(0,0)"/>
<path d="" fill="#EE4650" transform="translate(0,0)"/>
<path d="" fill="#ED4754" transform="translate(0,0)"/>
<path d="" fill="#ED4757" transform="translate(0,0)"/>
<path d="" fill="#ED4B52" transform="translate(0,0)"/>
<path d="" fill="#ED444F" transform="translate(0,0)"/>
<path d="" fill="#EF4B55" transform="translate(0,0)"/>
<path d="" fill="#EC4953" transform="translate(0,0)"/>
<path d="" fill="#EB5157" transform="translate(0,0)"/>
<path d="" fill="#E7545A" transform="translate(0,0)"/>
<path d="" fill="#E85359" transform="translate(0,0)"/>
<path d="" fill="#F04951" transform="translate(0,0)"/>
<path d="" fill="#EE4852" transform="translate(0,0)"/>
<path d="" fill="#F14954" transform="translate(0,0)"/>
<path d="" fill="#ED4651" transform="translate(0,0)"/>
<path d="" fill="#EC4A56" transform="translate(0,0)"/>
<path d="" fill="#EC4C5A" transform="translate(0,0)"/>
<path d="" fill="#EB4E58" transform="translate(0,0)"/>
<path d="" fill="#EF454F" transform="translate(0,0)"/>
<path d="" fill="#ED4350" transform="translate(0,0)"/>
<path d="" fill="#E7525B" transform="translate(0,0)"/>
<path d="" fill="#EE4755" transform="translate(0,0)"/>
<path d="" fill="#EC4D58" transform="translate(0,0)"/>
<path d="" fill="#EE4553" transform="translate(0,0)"/>
<path d="" fill="#E95059" transform="translate(0,0)"/>
<path d="" fill="#EA5058" transform="translate(0,0)"/>
<path d="" fill="#E85057" transform="translate(0,0)"/>
<path d="" fill="#E95257" transform="translate(0,0)"/>
<path d="" fill="#EE4551" transform="translate(0,0)"/>
<path d="" fill="#F24752" transform="translate(0,0)"/>
<path d="" fill="#EF4450" transform="translate(0,0)"/>
<path d="" fill="#E95359" transform="translate(0,0)"/>
<path d="" fill="#EC4D5A" transform="translate(0,0)"/>
<path d="" fill="#F04550" transform="translate(0,0)"/>
<path d="" fill="#ED4350" transform="translate(0,0)"/>
<path d="" fill="#EA5057" transform="translate(0,0)"/>
<path d="" fill="#EB555A" transform="translate(0,0)"/>
<path d="" fill="#EE4853" transform="translate(0,0)"/>
<path d="" fill="#E3545A" transform="translate(0,0)"/>
<path d="" fill="#F04853" transform="translate(0,0)"/>
<path d="" fill="#E95961" transform="translate(0,0)"/>
<path d="" fill="#EA4C57" transform="translate(0,0)"/>
<path d="" fill="#EE4C57" transform="translate(0,0)"/>
<path d="" fill="#EB4F57" transform="translate(0,0)"/>
<path d="" fill="#EA505A" transform="translate(0,0)"/>
<path d="" fill="#EB515D" transform="translate(0,0)"/>
<path d="" fill="#EE4955" transform="translate(0,0)"/>
<path d="" fill="#E74F58" transform="translate(0,0)"/>
<path d="" fill="#EA4E58" transform="translate(0,0)"/>
<path d="" fill="#E84D57" transform="translate(0,0)"/>
<path d="" fill="#E94D54" transform="translate(0,0)"/>
<path d="" fill="#EA4A54" transform="translate(0,0)"/>
<path d="" fill="#E75459" transform="translate(0,0)"/>
<path d="" fill="#E74B54" transform="translate(0,0)"/>
<path d="" fill="#E8515A" transform="translate(0,0)"/>
<path d="" fill="#ED4F5A" transform="translate(0,0)"/>
<path d="" fill="#E94E5A" transform="translate(0,0)"/>
<path d="" fill="#EA515B" transform="translate(0,0)"/>
<path d="" fill="#E94E58" transform="translate(0,0)"/>
<path d="" fill="#EB4F5A" transform="translate(0,0)"/>
<path d="" fill="#E8515A" transform="translate(0,0)"/>
<path d="" fill="#E44A56" transform="translate(0,0)"/>
<path d="" fill="#E8515B" transform="translate(0,0)"/>
<path d="" fill="#C28482" transform="translate(0,0)"/>
<path d="" fill="#AB8684" transform="translate(0,0)"/>
<path d="" fill="#A58784" transform="translate(0,0)"/>
<path d="" fill="#9B8984" transform="translate(0,0)"/>
<path d="" fill="#A08987" transform="translate(0,0)"/>
<path d="" fill="#958E8E" transform="translate(0,0)"/>
<path d="" fill="#968C8A" transform="translate(0,0)"/>
<path d="" fill="#8E898A" transform="translate(0,0)"/>
<path d="" fill="#949291" transform="translate(0,0)"/>
<path d="" fill="#908C8B" transform="translate(0,0)"/>
<path d="" fill="#8B8987" transform="translate(0,0)"/>
<path d="" fill="#91928F" transform="translate(0,0)"/>
<path d="" fill="#8F918F" transform="translate(0,0)"/>
<path d="" fill="#938E8B" transform="translate(0,0)"/>
</svg>
